<svg width="199" height="165" viewBox="0 0 199 165" fill="none" xmlns="http://www.w3.org/2000/svg">
<path fill-rule="evenodd" clip-rule="evenodd" d="M89.6863 153.45C82.2268 155.194 77.9396 160.134 78.0254 164.784L114.723 164.639C115.066 159.626 110.264 155.048 102.891 153.232C138.902 152.651 170.113 141.171 175.771 133.905C170.198 131.798 163.682 135.141 159.052 134.341C170.027 130.055 202.952 111.963 197.636 92.6367C193.301 101.827 185.53 109.56 175.514 114.652C187.775 98.8125 204.667 82.3195 190.09 69.6047C190.776 77.0156 184.431 85.1531 181.688 85.7344C188.804 69.0234 195.664 47.9531 180.144 34.1484C182.202 39.1617 181.43 53.257 178.601 53.9109C177.744 42.5039 175.429 18.6 161.281 18.9633C165.825 22.3055 167.712 31.6055 167.883 40.9055C164.625 34.5117 161.024 29.7164 153.136 24.9211C146.152 14.6734 136.209 6.0979 124.24 0C124.453 4.28226 125.9 8.45519 128.456 12.1537C131.012 15.8522 134.599 18.9636 138.902 21.2156C132.472 20.8523 126.041 10.5352 119.182 10.2445C113.694 10.0266 109.407 14.4586 100.404 11.9156C101.433 14.3859 105.549 15.5484 106.406 17.3649C104.605 18.4547 99.9754 17.2195 96.2027 15.5484C101.433 21.5063 109.493 24.9938 116.352 23.8313C124.498 22.5234 133.243 23.25 141.56 27.2461C136.37 28.1675 131.026 28.2905 125.784 27.6094C130.671 31.7508 133.844 34.5117 142.246 34.4391C149.792 34.4391 153.736 31.0969 155.622 33.1313C160.338 37.8539 163.51 42.5766 167.454 48.0984C158.709 48.9703 161.367 39.8156 151.678 35.093C146.276 44.6836 157.937 55.9453 165.911 60.668C165.911 67.8609 167.197 73.7461 170.798 79.268C173.199 83.1188 176.372 87.0422 175.171 95.7609C170.455 92.8547 165.74 82.9008 167.454 75.0539C161.453 76.4344 159.223 85.2258 161.967 89.7305C164.111 93.1453 165.482 99.6844 163.082 102.591C160.681 105.279 160.509 104.988 160.509 110.801C160.509 114.288 158.28 118.43 154.507 121.263C155.365 118.866 156.222 114.579 155.365 111.963C152.364 116.25 144.99 120.609 142.675 125.187C140.36 129.764 139.76 137.684 128.699 139.5C114.38 141.898 109.407 144.005 100.233 147.202C99.2037 141.316 102.29 128.965 108.121 129.691C113.866 130.563 131.1 124.605 124.926 112.254C123.726 116.177 119.61 119.955 115.238 120.173C119.953 114.942 128.442 109.493 124.326 100.774C121.84 105.203 117.875 108.917 112.922 111.455C118.839 101.937 113.608 99.1031 106.663 106.877C104.091 109.929 102.376 116.032 100.747 123.734C98.0033 117.485 98.1748 109.202 94.9166 102.518C91.4869 95.2523 110.007 92.0555 113.694 92.6367C122.783 94.7438 138.045 94.7438 136.845 81.9563C132.986 86.3156 115.495 88.8586 108.035 87.3328C116.438 82.1016 123.04 72.4383 113.694 67.3523C113.268 70.3518 111.972 73.2153 109.922 75.6873C107.873 78.1594 105.133 80.1633 101.947 81.5203C100.433 76.7459 100.345 71.727 101.69 66.9164C98.0033 70.1859 95.3453 76.943 93.2018 84.7172C93.1353 78.8665 94.0888 73.0396 96.0312 67.425C97.9176 61.3945 102.719 65.318 110.007 65.7539C117.038 66.1172 126.727 62.8477 124.926 54.7102C122.526 57.907 117.553 59.1422 112.494 58.8516C118.581 55.7273 129.128 50.1328 123.383 41.7047C120.896 44.9016 120.125 47.6625 113.094 48.6797C114.895 45.0469 115.238 39.9609 120.725 37.9992C110.95 36.3281 105.377 41.7773 102.548 50.2055C101.347 44.393 99.9754 42.2133 99.7182 37.8539C105.034 32.9133 105.549 23.1773 94.1449 21.0703C93.459 26.0109 93.7162 27.2461 95.0023 31.2422C89.6006 28.6266 82.141 27.1008 76.9965 30.9516C80.4262 34.0758 85.7422 36.7641 93.8877 33.4219C91.9156 38.7258 86.9426 37.7812 80.0832 35.7469C84.2846 42.4312 89.5148 43.6664 95.4311 42.8672C98.432 49.6969 98.6035 54.8555 89.6863 64.8094C90.0293 58.6336 89.5148 54.0563 83.6844 49.043C78.7971 44.9016 74.7672 49.2609 82.484 58.4156C76.8369 54.6168 72.8036 49.3628 70.9945 43.4484C69.4512 50.7867 70.823 59.4328 75.6246 64.3734C73.3096 66.4078 70.7373 64.1555 66.9647 59.1422C68.3365 75.2719 76.482 78.3234 87.457 74.7633C87.7143 83.6274 87.7143 91.8375 88.3145 102.518C83.5946 96.2764 77.1109 91.1319 69.4512 87.5508C67.9936 91.9102 73.3096 97.5047 76.3105 100.629C71.7662 99.9024 61.9916 93.5813 61.9916 93.5813C60.9627 100.774 71.9377 107.386 79.0543 110.365C70.7373 110.074 67.0504 107.459 61.6486 103.099C61.7344 123.007 87.1141 119.52 91.9156 116.468L94.0592 147.42C86.8568 146.402 87.457 144.513 81.2836 144.077C64.2209 143.496 50.6736 126.713 46.215 114.361C44.9289 116.395 45.9578 118.502 44.7574 121.045C42.0137 114.942 38.4982 107.168 33.6967 103.535C34.8971 107.023 35.0686 110.655 34.6398 117.195C33.0107 112.908 31.4674 111.6 31.3816 106.587C31.4674 102.736 35.7545 99.9024 35.583 94.4531C35.4115 90.5297 31.1244 81.9563 30.4385 75.2719C28.3807 82.1742 27.0945 89.3672 23.9221 93.5813C25.5512 86.3156 25.0367 81.2297 27.6947 76.3617C30.7814 71.1305 33.3537 66.5531 31.2959 61.3219C29.3238 63.3563 30.0098 65.1727 25.1225 70.0406C24.0078 64.7367 31.4674 56.2359 38.6697 52.7484C43.8143 50.5688 50.1592 42.3586 46.0436 36.7641C41.242 39.6703 39.0984 43.6664 32.3248 50.3508C37.1264 34.3664 49.6447 30.225 64.6496 30.1523C68.0793 30.1523 74.6815 29.1352 76.6535 25.4297C72.3664 26.8102 67.3076 26.9555 62.9348 26.1562C66.1072 22.2328 72.9666 22.7414 79.3115 22.6687C84.2846 22.6687 92.0871 22.0875 95.2596 16.1297C88.3595 18.3619 80.8164 18.7424 73.6525 17.2195C83.1699 13.0055 98.0891 12.5695 105.72 7.04765C96.9744 1.59844 75.1959 8.42813 61.4771 16.4203C65.3355 13.4414 71.4232 8.1375 74.7672 3.85078C67.2219 0.799221 48.1871 18.6727 41.6707 29.2805C35.4973 32.1867 33.0107 36.9094 30.5242 40.1789C33.9539 30.6609 34.2111 23.7586 36.9549 15.9844C15.6908 22.1602 24.5223 55.582 19.8922 63.5742C20.4066 54.7102 19.9779 43.3758 15.6908 37.5633C9.17441 41.7773 8.57422 66.7711 14.8334 87.6234C12.5184 82.0289 8.31699 76.7977 7.03086 70.0406C-2.74375 85.0805 12.6898 102.736 25.5512 116.759C15.2965 111.365 6.5721 104.121 0 95.543C1.71484 122.426 34.8971 128.02 40.0416 134.632C33.0107 131.871 19.7207 126.422 13.976 132.162C21.9337 133.416 29.5676 135.851 36.5262 139.355C45.1004 148.437 61.3914 152.433 89.6863 153.45Z" fill="#041676"/>
</svg>
