<svg width="148" height="20" viewBox="0 0 148 20" fill="none" xmlns="http://www.w3.org/2000/svg">
<path fill-rule="evenodd" clip-rule="evenodd" d="M103.546 0.290556H106.586V16.779H119.77L117.834 20H103.546V0.290556ZM79.6683 20L68.421 1.21747C67.7296 -0.0017781 65.8862 -0.00177784 65.1022 1.26649L53.9476 20H57.6352L61.0003 14.3405H68.1911L70.0816 11.1203H62.8908L66.8092 4.6328L75.9823 20H79.6683ZM86.5121 0.296792C81.3736 0.296792 77.9908 4.70589 77.9908 10.1453C77.9908 15.5838 81.3744 19.9947 86.5121 19.9947L99.0074 19.9786L100.963 16.7861H86.6039C83.1403 16.7861 81.1133 13.8128 81.1133 10.1453C81.1133 6.47772 83.1395 3.50446 86.6039 3.50446H99.3948L101.283 0.286993L86.5121 0.296792ZM8.5222 3.50446H21.7047C25.17 3.50446 27.1961 6.47772 27.1961 10.1453C27.1961 13.8128 25.1708 16.7861 21.7047 16.7861H8.5222C5.0569 16.7861 3.03161 13.8128 3.03161 10.1453C3.03161 6.47772 5.0569 3.50446 8.5222 3.50446ZM8.5222 0.296792C3.38278 0.296792 0 4.70589 0 10.1453C0 15.5838 3.38278 19.9947 8.5222 19.9947H21.7047C26.8441 19.9947 30.2269 15.5838 30.2269 10.1453C30.2269 4.70589 26.8441 0.296792 21.7047 0.296792H8.5222ZM123.019 11.7068C123.515 14.6212 125.409 16.7861 128.367 16.7861H142.726L140.769 19.9786L128.275 19.9947C123.135 19.9947 119.754 15.5838 119.754 10.1453C119.754 4.70589 123.136 0.296792 128.275 0.296792L143.045 0.287884L141.159 3.50535H128.368C125.452 3.50535 123.548 5.63369 123.02 8.48752H141.067L139.131 11.7077L123.019 11.7068ZM47.4254 11.992C48.874 11.9652 50.2548 11.3374 51.2703 10.2436C52.2858 9.14991 52.8549 7.67782 52.8549 6.14439C52.8549 4.61096 52.2858 3.13886 51.2703 2.04514C50.2548 0.951417 48.874 0.323561 47.4254 0.296792L31.9145 0.289665V19.9991H35.3259V3.50535H47.4254C48.0867 3.50535 48.7209 3.78339 49.1886 4.27831C49.6562 4.77322 49.9189 5.44447 49.9189 6.14439C49.9189 6.84431 49.6562 7.51555 49.1886 8.01047C48.7209 8.50539 48.0867 8.78343 47.4254 8.78343H37.7225L48.6683 19.9768H53.0718L45.2359 11.9991L47.4254 11.992ZM146.232 0.308378C147.022 0.308378 147.648 0.969702 147.648 1.84671C147.648 2.73797 147.023 3.39394 146.232 3.39394C145.431 3.39394 144.808 2.73797 144.808 1.84671C144.808 0.969702 145.431 0.308378 146.232 0.308378V0C145.269 0 144.456 0.783422 144.456 1.84581C144.456 2.91889 145.27 3.70232 146.232 3.70232C147.186 3.70232 148 2.91889 148 1.84581C148 0.783422 147.186 0 146.232 0V0.308378Z" fill="#041676"/>
<path fill-rule="evenodd" clip-rule="evenodd" d="M145.401 1.38314H145.946C146.222 1.38314 146.518 1.452 146.518 1.82387C146.518 2.28464 146.216 2.31344 145.876 2.31344H145.4V2.69909H145.859L146.554 4H147L146.251 2.67905C146.638 2.62395 146.933 2.39107 146.933 1.85392C146.933 1.26169 146.624 1 146.004 1H145V4H145.399V1.38314H145.401Z" fill="#041676"/>
</svg>
