<svg width="67" height="20" viewBox="0 0 67 20" fill="none" xmlns="http://www.w3.org/2000/svg">
<path d="M14.0617 11.2057C14.2437 11.2057 14.4257 11.2057 14.6132 11.2057C14.7497 11.4163 14.7497 11.4163 14.8889 11.6312C15.7471 11.6312 16.2972 11.6066 17.0947 11.4894C17.0947 11.3957 17.0947 11.3021 17.0947 11.2057C17.5496 11.2057 18.0045 11.2057 18.4733 11.2057C18.4733 11.6738 18.4733 12.1418 18.4733 12.6241C18.8372 12.5773 19.2012 12.5305 19.5761 12.4823C19.6671 12.295 19.7581 12.1078 19.8519 11.9149C20.2158 11.9617 20.5798 12.0085 20.9547 12.0567C20.9547 11.9631 20.9547 11.8695 20.9547 11.773C21.1367 11.7262 21.3187 11.6794 21.5062 11.6312C21.5972 11.4908 21.6882 11.3504 21.7819 11.2057C22.3278 11.2057 22.8738 11.2057 23.4362 11.2057C23.4362 11.4397 23.4362 11.6738 23.4362 11.9149C24.3461 11.9149 25.256 11.9149 26.1934 11.9149C26.1934 12.1489 26.1934 12.383 26.1934 12.6241C24.2827 12.6241 22.3719 12.6241 20.4033 12.6241C20.4033 12.7177 20.4033 12.8113 20.4033 12.9078C20.6649 12.9224 20.9265 12.9371 21.196 12.9521C22.0576 13.0496 22.0576 13.0496 22.6091 13.4752C22.7001 13.3348 22.791 13.1943 22.8848 13.0496C23.0918 13.0504 23.2989 13.0511 23.5122 13.0519C24.4577 13.0549 25.4031 13.0567 26.3485 13.0585C26.6743 13.0597 27 13.0609 27.3356 13.0621C28.9222 13.0644 30.4129 13.0264 31.9836 12.9078C33.0809 12.8905 34.1772 12.8944 35.275 12.8989C35.7156 12.8999 35.7156 12.8999 36.1651 12.9009C36.8851 12.9025 37.6051 12.9049 38.3251 12.9078C38.0522 12.7674 38.0522 12.7674 37.7737 12.6241C37.5917 12.7177 37.4097 12.8113 37.2222 12.9078C36.6256 12.8734 36.6256 12.8734 35.947 12.7837C35.7217 12.7548 35.4964 12.7259 35.2642 12.6961C35.0915 12.6724 34.9187 12.6486 34.7408 12.6241C34.8317 12.3433 34.9227 12.0624 35.0165 11.773C35.8436 11.773 35.8436 11.773 36.6708 11.9149C36.8926 11.8652 37.1144 11.8154 37.3429 11.7642C38.0494 11.6312 38.0494 11.6312 38.6353 11.7642C38.8059 11.8139 38.9765 11.8637 39.1523 11.9149C39.4252 11.8681 39.6982 11.8213 39.9794 11.773C40.1816 11.4872 40.1816 11.4872 40.2552 11.2057C40.7101 11.2057 41.165 11.2057 41.6338 11.2057C41.6338 11.6738 41.6338 12.1418 41.6338 12.6241C42.4493 12.5237 42.4493 12.5237 43.2881 12.3404C43.3791 12.2468 43.4701 12.1532 43.5638 12.0567C43.8395 11.773 43.8395 11.773 44.7011 11.5957C44.9627 11.5606 45.2243 11.5255 45.4938 11.4894C45.4938 11.6298 45.4938 11.7702 45.4938 11.9149C46.0452 11.8027 46.0452 11.8027 46.5967 11.6312C46.6877 11.4908 46.7787 11.3504 46.8724 11.2057C47.1454 11.2057 47.4184 11.2057 47.6996 11.2057C47.7906 11.3929 47.8816 11.5801 47.9753 11.773C48.2483 11.773 48.5212 11.773 48.8025 11.773C48.8935 11.5858 48.9845 11.3986 49.0782 11.2057C49.5331 11.2057 49.9881 11.2057 50.4568 11.2057C50.4568 11.6269 50.4568 12.0482 50.4568 12.4823C49.5014 12.6929 49.5014 12.6929 48.5268 12.9078C48.8904 12.9062 49.254 12.9045 49.6286 12.9028C52.766 12.8932 55.875 12.9315 59.0041 13.0496C59.2771 13.4709 59.2771 13.4709 59.5556 13.9007C59.2799 14.0426 59.2799 14.0426 58.8055 14.0596C58.5977 14.0593 58.39 14.059 58.176 14.0587C57.8194 14.0586 57.8194 14.0586 57.4555 14.0586C57.1927 14.0579 56.9299 14.0572 56.6591 14.0564C56.3838 14.0562 56.1086 14.056 55.825 14.0558C55.225 14.0552 54.625 14.0544 54.025 14.0532C53.0761 14.0514 52.1272 14.0505 51.1783 14.0498C48.8206 14.0479 46.4629 14.0445 44.1051 14.0411C42.1155 14.0383 40.1259 14.0361 38.1363 14.0346C37.2004 14.0337 36.2644 14.0319 35.3285 14.0301C34.7551 14.0296 34.1818 14.0291 33.6085 14.0287C33.3473 14.028 33.0861 14.0272 32.8171 14.0265C32.577 14.0265 32.3369 14.0265 32.0896 14.0264C31.8815 14.0261 31.6735 14.0258 31.4591 14.0255C30.8773 14.0328 30.8773 14.0328 30.3181 14.1183C29.5537 14.2118 28.856 14.1303 28.0856 14.0801C26.3417 13.9972 24.5822 14.0255 22.832 14.0287C22.4028 14.029 21.9737 14.0292 21.5445 14.0293C20.4227 14.0298 19.3008 14.0312 18.179 14.0328C17.0311 14.0343 15.8833 14.0349 14.7354 14.0356C12.4889 14.0371 10.2424 14.0396 7.9959 14.0426C7.90491 13.9021 7.81392 13.7617 7.72018 13.617C7.72018 13.7574 7.72018 13.8979 7.72018 14.0426C7.56024 14.0409 7.4003 14.0393 7.23551 14.0376C6.27764 14.0319 5.38891 14.0274 4.446 14.1223C3.13403 14.2168 1.86195 14.1205 0.551453 14.0426C0.64244 13.7149 0.733428 13.3872 0.827173 13.0496C4.2847 13.0028 7.74223 12.956 11.3045 12.9078C11.1226 12.5801 10.9406 12.2525 10.7531 11.9149C10.7531 11.7277 10.7531 11.5404 10.7531 11.3475C11.208 11.3475 11.663 11.3475 12.1317 11.3475C12.3137 11.6752 12.4957 12.0028 12.6831 12.3404C12.7741 12.1532 12.8651 11.966 12.9589 11.773C13.2318 11.773 13.5048 11.773 13.786 11.773C13.877 11.5858 13.968 11.3986 14.0617 11.2057ZM17.0947 11.773C17.3704 12.0567 17.3704 12.0567 17.3704 12.0567L17.0947 11.773ZM13.786 12.4823C13.3766 12.7631 13.3766 12.7631 12.9589 13.0496C14.7031 13.1778 16.1775 13.1778 17.9218 13.0496C17.8308 12.9092 17.7398 12.7688 17.6461 12.6241C16.5122 12.6066 16.5122 12.6066 15.4059 12.7128C14.7092 12.7844 14.3789 12.6675 13.786 12.4823ZM44.1152 12.4823C44.1152 12.6227 44.1152 12.7631 44.1152 12.9078C43.9333 12.9078 43.7513 12.9078 43.5638 12.9078C43.6548 13.0014 43.7458 13.095 43.8395 13.1915C45.6138 13.1213 45.6138 13.1213 47.4239 13.0496C47.2419 13.0028 47.0599 12.956 46.8724 12.9078C46.7815 12.7674 46.6905 12.6269 46.5967 12.4823C45.7778 12.4823 44.9589 12.4823 44.1152 12.4823ZM40.2552 12.766C40.3461 12.9064 40.4371 13.0468 40.5309 13.1915C40.5309 13.0511 40.5309 12.9106 40.5309 12.766C40.4399 12.766 40.3489 12.766 40.2552 12.766Z" fill="#B9BAC5"/>
<path d="M24.2634 5.67376C25.7492 5.63494 27.2339 5.60677 28.7213 5.58805C29.2261 5.58024 29.7307 5.56962 30.235 5.55605C34.4233 5.44623 34.4233 5.44623 35.888 6.00807C36.5183 6.4026 37.0157 6.78863 37.4979 7.23404C37.7576 7.42483 38.0211 7.61426 38.2906 7.80142C38.484 7.94184 38.6773 8.08227 38.8765 8.22695C39.1495 8.36737 39.4225 8.5078 39.7037 8.65248C39.7947 7.85674 39.8857 7.06099 39.9794 6.24113C39.6155 6.24113 39.2515 6.24113 38.8765 6.24113C38.8765 6.0539 38.8765 5.86667 38.8765 5.67376C42.607 5.67376 46.3375 5.67376 50.1811 5.67376C50.1811 6.14184 50.1811 6.60993 50.1811 7.0922C49.9081 7.0922 49.6351 7.0922 49.3539 7.0922C49.2174 6.74113 49.2174 6.74113 49.0782 6.38298C47.9863 6.38298 46.8945 6.38298 45.7695 6.38298C45.7695 6.85106 45.7695 7.31915 45.7695 7.80142C46.1676 7.78972 46.5657 7.77801 46.9758 7.76596C47.1997 7.75937 47.4236 7.75279 47.6543 7.74601C48.303 7.68905 48.303 7.68905 48.6064 7.36924C48.6711 7.27781 48.7358 7.18639 48.8025 7.0922C49.0754 7.16241 49.0754 7.16241 49.3539 7.23404C49.3539 7.84255 49.3539 8.45106 49.3539 9.07801C49.0809 9.07801 48.808 9.07801 48.5267 9.07801C48.3903 8.86737 48.3903 8.86737 48.251 8.65248C47.6704 8.53821 47.6704 8.53821 46.993 8.48404C46.5893 8.44601 46.1855 8.40798 45.7695 8.36879C45.906 9.21135 45.906 9.21135 46.0453 10.0709C47.8419 10.1722 47.8419 10.1722 49.3194 9.72518C49.5128 9.60523 49.7061 9.48528 49.9053 9.3617C50.1783 9.31489 50.4513 9.26808 50.7325 9.21986C50.4912 10.3014 50.4912 10.3014 50.1811 10.7801C47.6334 10.7801 45.0858 10.7801 42.4609 10.7801C42.4609 10.6397 42.4609 10.4993 42.4609 10.3546C42.8248 10.261 43.1888 10.1674 43.5638 10.0709C43.6548 8.80709 43.7458 7.54326 43.8395 6.24113C42.9296 6.28794 42.0197 6.33475 41.0823 6.38298C41.0823 7.88085 41.0823 9.37872 41.0823 10.922C39.8721 10.6107 39.3046 10.2471 38.5147 9.70745C38.3821 9.61874 38.2496 9.53004 38.1131 9.43865C37.8472 9.26052 37.5821 9.08206 37.3178 8.90327C36.8146 8.56337 36.3033 8.22673 35.7919 7.89007C35.536 7.72039 35.2801 7.55071 35.0165 7.37589C35.0165 8.26525 35.0165 9.15461 35.0165 10.0709C35.6989 10.2113 35.6989 10.2113 36.3951 10.3546C36.3041 10.495 36.2131 10.6355 36.1193 10.7801C34.9365 10.7801 33.7537 10.7801 32.535 10.7801C32.626 10.5929 32.7169 10.4057 32.8107 10.2128C33.0837 10.166 33.3566 10.1191 33.6379 10.0709C33.6379 8.90071 33.6379 7.7305 33.6379 6.52482C33.2739 6.47801 32.91 6.4312 32.535 6.38298C32.444 6.61702 32.353 6.85106 32.2593 7.0922C31.4321 6.95035 31.4321 6.95035 30.8807 6.52482C30.2437 6.47801 29.6068 6.4312 28.9506 6.38298C29.0416 7.64681 29.1326 8.91064 29.2263 10.2128C29.5903 10.2596 29.9542 10.3064 30.3292 10.3546C30.3292 10.495 30.3292 10.6355 30.3292 10.7801C28.9644 10.7801 27.5996 10.7801 26.1934 10.7801C26.2844 10.5929 26.3754 10.4057 26.4691 10.2128C26.7421 10.2128 27.0151 10.2128 27.2963 10.2128C27.2963 8.94894 27.2963 7.68511 27.2963 6.38298C26.6594 6.38298 26.0225 6.38298 25.3662 6.38298C25.1843 6.61702 25.0023 6.85106 24.8148 7.0922C24.6328 7.0922 24.4509 7.0922 24.2634 7.0922C24.2634 6.62411 24.2634 6.15603 24.2634 5.67376Z" fill="#343A63"/>
<path d="M0.827173 5.67376C1.56834 5.66218 2.30882 5.65379 3.05017 5.64716C3.25755 5.6436 3.46494 5.64003 3.67861 5.63636C5.14858 5.62654 6.13932 5.74604 7.44446 6.09929C7.62643 6.19291 7.80841 6.28652 7.9959 6.38298C8.29729 6.29229 8.59869 6.20159 8.90922 6.10815C10.2339 5.70957 11.4257 5.57657 12.9589 5.67376C14.2523 5.8658 15.189 6.17916 15.9918 6.73759C16.7898 7.48604 16.8076 8.24867 16.5432 9.07801C16.073 9.76151 15.3506 10.2059 14.1307 10.5674C12.6998 10.8773 11.3691 10.9121 9.87855 10.6915C8.34259 10.3588 7.60076 9.83903 6.89302 9.07801C6.80203 8.93759 6.71104 8.79716 6.6173 8.65248C5.25248 8.72269 5.25248 8.72269 3.86009 8.79432C3.86009 9.26241 3.86009 9.73049 3.86009 10.2128C4.22405 10.2596 4.588 10.3064 4.96298 10.3546C4.96298 10.495 4.96298 10.6355 4.96298 10.7801C3.50717 10.7801 2.05137 10.7801 0.551453 10.7801C0.64244 10.5929 0.733428 10.4057 0.827173 10.2128C1.19112 10.2128 1.55507 10.2128 1.93005 10.2128C1.83907 8.94893 1.74808 7.6851 1.65433 6.38298C1.29038 6.33617 0.926432 6.28936 0.551453 6.24113C0.64244 6.0539 0.733428 5.86667 0.827173 5.67376ZM3.58437 6.38298C3.58437 6.94468 3.58437 7.50638 3.58437 8.0851C4.53073 8.04767 4.53073 8.04767 5.51442 7.94326C6.15766 7.54224 6.15766 7.54224 5.99693 7.08333C5.8565 6.65256 5.8565 6.65256 5.2387 6.38298C4.69277 6.38298 4.14684 6.38298 3.58437 6.38298Z" fill="#CCCBCF"/>
<path d="M14.0617 11.2057C14.2437 11.2057 14.4257 11.2057 14.6132 11.2057C14.7497 11.4163 14.7497 11.4163 14.8889 11.6312C15.7471 11.6312 16.2972 11.6066 17.0947 11.4894C17.0947 11.3957 17.0947 11.3021 17.0947 11.2057C17.5496 11.2057 18.0045 11.2057 18.4733 11.2057C18.4733 11.6738 18.4733 12.1418 18.4733 12.6241C18.8372 12.5773 19.2012 12.5305 19.5761 12.4823C19.6671 12.295 19.7581 12.1078 19.8519 11.9149C20.2158 11.9617 20.5798 12.0085 20.9547 12.0567C20.9547 11.9631 20.9547 11.8695 20.9547 11.773C21.1367 11.7262 21.3187 11.6794 21.5062 11.6312C21.5972 11.4908 21.6882 11.3504 21.7819 11.2057C22.3278 11.2057 22.8738 11.2057 23.4362 11.2057C23.4362 11.4397 23.4362 11.6738 23.4362 11.9149C24.3461 11.9149 25.256 11.9149 26.1934 11.9149C26.1934 12.1489 26.1934 12.383 26.1934 12.6241C24.2827 12.6241 22.3719 12.6241 20.4033 12.6241C20.4033 12.7177 20.4033 12.8113 20.4033 12.9078C21.2222 12.978 21.2222 12.978 22.0576 13.0496C22.0576 13.0965 22.0576 13.1433 22.0576 13.1915C21.6027 13.1915 21.1478 13.1915 20.679 13.1915C20.588 13.3319 20.4971 13.4723 20.4033 13.617C20.4033 13.4766 20.4033 13.3362 20.4033 13.1915C19.9484 13.1915 19.4934 13.1915 19.0247 13.1915C18.9337 13.3319 18.8427 13.4723 18.749 13.617C18.749 13.4766 18.749 13.3362 18.749 13.1915C17.8391 13.1915 16.9292 13.1915 15.9918 13.1915C16.1283 13.6128 16.1283 13.6128 16.2675 14.0426C13.5379 14.0426 10.8082 14.0426 7.9959 14.0426C7.90491 13.9021 7.81392 13.7617 7.72018 13.617C7.72018 13.7574 7.72018 13.8979 7.72018 14.0426C7.56024 14.0409 7.4003 14.0393 7.23551 14.0376C6.27764 14.0319 5.38891 14.0274 4.446 14.1223C3.13403 14.2168 1.86195 14.1205 0.551453 14.0426C0.64244 13.7149 0.733428 13.3872 0.827173 13.0496C4.2847 13.0028 7.74223 12.956 11.3045 12.9078C11.1226 12.5801 10.9406 12.2525 10.7531 11.9149C10.7531 11.7277 10.7531 11.5404 10.7531 11.3475C11.208 11.3475 11.663 11.3475 12.1317 11.3475C12.3137 11.6752 12.4957 12.0028 12.6831 12.3404C12.7741 12.1532 12.8651 11.966 12.9589 11.773C13.2318 11.773 13.5048 11.773 13.786 11.773C13.877 11.5858 13.968 11.3986 14.0617 11.2057ZM17.0947 11.773C17.3704 12.0567 17.3704 12.0567 17.3704 12.0567L17.0947 11.773ZM13.786 12.4823C13.3766 12.7631 13.3766 12.7631 12.9589 13.0496C14.7031 13.1778 16.1775 13.1778 17.9218 13.0496C17.8308 12.9092 17.7398 12.7688 17.6461 12.6241C16.5122 12.6066 16.5122 12.6066 15.4059 12.7128C14.7092 12.7844 14.3789 12.6675 13.786 12.4823Z" fill="#A2A1A4"/>
<path d="M15.7161 5.67376C16.5549 5.66222 17.393 5.65381 18.232 5.64716C18.468 5.6436 18.704 5.64003 18.9472 5.63636C20.3774 5.62787 21.3809 5.67709 22.6091 6.09929C23.2864 6.62198 23.3537 7.05244 23.1605 7.65958C22.666 8.05816 22.3282 8.29921 21.5062 8.51064C22.7403 9.42351 22.7403 9.42351 24.384 10.1241C24.7337 10.2382 24.7337 10.2382 25.0905 10.3546C25.0905 10.495 25.0905 10.6355 25.0905 10.7801C24.1218 10.8721 23.2969 10.8972 22.3333 10.7801C21.4266 10.3643 20.7911 9.88201 20.1276 9.3617C19.5056 8.87795 19.5056 8.87795 18.4733 8.65248C18.5642 9.16738 18.6552 9.68227 18.749 10.2128C19.2039 10.2596 19.6589 10.3064 20.1276 10.3546C20.1276 10.495 20.1276 10.6355 20.1276 10.7801C18.5808 10.7801 17.034 10.7801 15.4403 10.7801C15.5313 10.5929 15.6223 10.4057 15.7161 10.2128C16.08 10.2128 16.444 10.2128 16.8189 10.2128C16.8189 8.90213 16.8189 7.59149 16.8189 6.24114C16.364 6.19433 15.9091 6.14752 15.4403 6.09929C15.5313 5.95887 15.6223 5.81844 15.7161 5.67376ZM18.4733 6.38298C18.4733 6.89787 18.4733 7.41277 18.4733 7.94326C19.1102 7.94326 19.7471 7.94326 20.4033 7.94326C20.4033 7.84965 20.4033 7.75603 20.4033 7.65958C20.5853 7.65958 20.7673 7.65958 20.9547 7.65958C21.2621 7.08744 21.2621 7.08744 20.9547 6.54255C20.1323 6.30455 19.397 6.35608 18.4733 6.38298Z" fill="#4C5174"/>
<path d="M12.0627 5.85993C12.3698 5.9082 12.3698 5.9082 12.6831 5.95745C12.2282 6.2383 11.7732 6.51915 11.3045 6.80851C11.0316 6.7617 10.7586 6.71489 10.4774 6.66667C10.4376 6.82757 10.3977 6.98848 10.3567 7.15426C10.2016 7.65958 10.2016 7.65958 9.92592 7.80142C9.91467 8.08505 9.91419 8.36886 9.92592 8.65248C10.1477 8.67004 10.3695 8.68759 10.598 8.70567C10.9477 8.74956 10.9477 8.74956 11.3045 8.79433C11.7121 9.21371 11.5969 9.60884 11.5802 10.0709C12.5189 9.90995 12.573 9.85067 13.0105 9.42376C13.1755 9.26286 13.3404 9.10195 13.5103 8.93617C13.6923 8.93617 13.8742 8.93617 14.0617 8.93617C14.0617 8.74894 14.0617 8.5617 14.0617 8.3688C14.5442 8.20922 14.5442 8.20922 15.1646 8.08511C15.785 8.20922 15.785 8.20922 16.2675 8.3688C16.3557 8.93593 16.3288 9.2947 15.8539 9.81383C14.8523 10.3935 13.8365 10.7029 12.3417 10.8344C10.7941 10.8757 9.50491 10.7038 8.2716 10.2128C7.36401 9.70053 6.8167 9.19315 6.77237 8.49291C6.88395 7.98447 7.07612 7.56591 7.44444 7.0922C7.62641 7.0922 7.80839 7.0922 7.99588 7.0922C8.05274 7.00443 8.10961 6.91667 8.1682 6.82624C8.70022 6.40325 9.2811 6.38321 10.2016 6.24114C10.3893 6.16215 10.577 6.08316 10.7703 6.00177C11.3045 5.8156 11.3045 5.8156 12.0627 5.85993Z" fill="#535152"/>
<path d="M46.8724 11.2057C47.1454 11.2057 47.4183 11.2057 47.6996 11.2057C47.7906 11.3929 47.8816 11.5801 47.9753 11.773C48.2483 11.773 48.5212 11.773 48.8025 11.773C48.8935 11.5858 48.9844 11.3986 49.0782 11.2057C49.5331 11.2057 49.9881 11.2057 50.4568 11.2057C50.4568 11.6269 50.4568 12.0482 50.4568 12.4823C49.5014 12.6929 49.5014 12.6929 48.5267 12.9078C48.8903 12.9062 49.2539 12.9045 49.6285 12.9028C52.766 12.8932 55.875 12.9315 59.0041 13.0496C59.1861 13.3305 59.3681 13.6113 59.5556 13.9007C59.2798 14.0426 59.2798 14.0426 58.388 14.0587C57.9927 14.0586 57.5975 14.0578 57.2022 14.0564C56.8907 14.0561 56.8907 14.0561 56.5729 14.0558C55.907 14.055 55.2412 14.0532 54.5754 14.0514C54.125 14.0507 53.6746 14.0501 53.2242 14.0495C52.1179 14.0479 51.0116 14.0455 49.9053 14.0426C49.9053 13.7617 49.9053 13.4809 49.9053 13.1915C48.8135 13.1915 47.7216 13.1915 46.5967 13.1915C46.6877 13.0979 46.7787 13.0043 46.8724 12.9078C46.333 12.5658 46.333 12.5658 45.3215 12.6064C44.8609 12.6152 44.8609 12.6152 44.3909 12.6241C44.3 12.7177 44.209 12.8113 44.1152 12.9078C43.5982 13.023 43.5982 13.023 43.0123 13.0496C42.5298 12.8457 42.5298 12.8457 42.1852 12.6241C42.3558 12.589 42.5264 12.5539 42.7022 12.5177C43.3291 12.3677 43.3291 12.3677 43.5293 12.0567C43.8395 11.773 43.8395 11.773 44.7011 11.5957C44.9627 11.5606 45.2243 11.5255 45.4938 11.4894C45.4938 11.6298 45.4938 11.7702 45.4938 11.9149C46.0452 11.8027 46.0452 11.8027 46.5967 11.6312C46.6877 11.4908 46.7787 11.3504 46.8724 11.2057Z" fill="#7C7B89"/>
<path d="M0.827173 5.67376C1.56834 5.66218 2.30882 5.65379 3.05017 5.64716C3.25755 5.6436 3.46494 5.64003 3.67861 5.63636C5.14669 5.62655 6.13298 5.75791 7.44446 6.09929C7.49965 6.70975 7.34341 7.10076 6.89302 7.65957C6.78788 7.9895 6.69323 8.32044 6.6173 8.65248C5.25248 8.72269 5.25248 8.72269 3.86009 8.79433C3.86009 9.26241 3.86009 9.7305 3.86009 10.2128C4.22405 10.2596 4.588 10.3064 4.96298 10.3546C4.96298 10.495 4.96298 10.6355 4.96298 10.7801C3.50717 10.7801 2.05137 10.7801 0.551453 10.7801C0.64244 10.5929 0.733428 10.4057 0.827173 10.2128C1.19112 10.2128 1.55507 10.2128 1.93005 10.2128C1.83907 8.94893 1.74808 7.68511 1.65433 6.38298C1.29038 6.33617 0.926432 6.28936 0.551453 6.24113C0.64244 6.0539 0.733428 5.86667 0.827173 5.67376ZM3.58437 6.38298C3.58437 6.94468 3.58437 7.50638 3.58437 8.08511C4.53073 8.04767 4.53073 8.04767 5.51442 7.94326C6.15766 7.54224 6.15766 7.54224 5.99693 7.08333C5.85649 6.65256 5.85649 6.65256 5.2387 6.38298C4.69277 6.38298 4.14684 6.38298 3.58437 6.38298Z" fill="#4C5175"/>
<path d="M51.284 5.67376C53.9226 5.67376 56.5612 5.67376 59.2798 5.67376C59.2798 6.14184 59.2798 6.60993 59.2798 7.0922C59.0069 7.0922 58.7339 7.0922 58.4527 7.0922C58.4015 7.00151 58.3503 6.91082 58.2976 6.81738C58.1668 6.72083 58.036 6.62429 57.9012 6.52482C57.2643 6.47801 56.6274 6.43121 55.9712 6.38298C56.0622 7.6 56.1532 8.81702 56.2469 10.0709C56.6109 10.1645 56.9748 10.2582 57.3498 10.3546C57.3498 10.495 57.3498 10.6355 57.3498 10.7801C55.985 10.827 54.6202 10.8738 53.214 10.922C53.123 10.7348 53.032 10.5475 52.9383 10.3546C53.3022 10.261 53.6662 10.1674 54.0412 10.0709C54.1321 8.8539 54.2231 7.63688 54.3169 6.38298C53.68 6.42979 53.0431 6.4766 52.3868 6.52482C51.9697 6.79943 51.9697 6.79943 51.8354 7.0922C51.5624 7.0922 51.2895 7.0922 51.0082 7.0922C51.0992 6.62411 51.1902 6.15603 51.284 5.67376Z" fill="#2B325D"/>
<path d="M22.8848 13.0496C24.1363 13.0462 25.3877 13.0436 26.6392 13.0419C27.0653 13.0411 27.4913 13.0402 27.9174 13.0389C28.5285 13.0372 29.1397 13.0364 29.7508 13.0358C29.9424 13.0351 30.134 13.0343 30.3314 13.0336C30.7903 13.0335 31.2492 13.0409 31.7078 13.0496C31.8443 13.1199 31.8443 13.1199 31.9835 13.1915C32.7199 13.2115 33.4516 13.1975 34.1893 13.1915C34.1893 13.4255 34.1893 13.6596 34.1893 13.9007C33.0977 14.0879 32.0197 14.0426 30.8806 14.0426C30.6996 14.0672 30.5186 14.0919 30.3321 14.1173C29.7059 14.1931 29.2633 14.171 28.629 14.1229C27.319 14.0372 26.0402 14.0267 24.7211 14.0337C24.3703 14.0345 24.3703 14.0345 24.0124 14.0353C23.2747 14.037 22.5369 14.0397 21.7991 14.0426C20.8201 14.0463 19.8411 14.0492 18.8621 14.0514C18.6375 14.0526 18.4129 14.0538 18.1815 14.055C16.6054 14.0586 16.6054 14.0586 15.9918 13.9007C15.9918 13.6667 15.9918 13.4326 15.9918 13.1915C16.9912 13.1833 17.9907 13.1782 18.9902 13.1738C19.2749 13.1714 19.5596 13.169 19.8529 13.1666C20.1248 13.1656 20.3967 13.1647 20.6768 13.1638C21.0537 13.1616 21.0537 13.1616 21.4382 13.1593C22.0576 13.1915 22.0576 13.1915 22.609 13.4752C22.7 13.3348 22.791 13.1943 22.8848 13.0496Z" fill="#9395A7"/>
<path d="M16.5432 5.81561C17.908 5.81561 19.2728 5.81561 20.679 5.81561C20.4061 5.88582 20.4061 5.88582 20.1276 5.95745C20.1276 6.05107 20.1276 6.14468 20.1276 6.24114C19.5817 6.24114 19.0357 6.24114 18.4733 6.24114C18.4652 6.77009 18.4603 7.29905 18.456 7.82802C18.4537 7.97768 18.4514 8.12734 18.449 8.28153C18.4481 8.42643 18.4472 8.57134 18.4463 8.72064C18.4449 8.8536 18.4434 8.98656 18.442 9.12355C18.473 9.50078 18.5853 9.84528 18.749 10.2128C19.2039 10.2596 19.6589 10.3064 20.1276 10.3546C20.1276 10.495 20.1276 10.6355 20.1276 10.7801C18.5808 10.7801 17.034 10.7801 15.4403 10.7801C15.5313 10.5929 15.6223 10.4057 15.7161 10.2128C16.08 10.2128 16.444 10.2128 16.8189 10.2128C16.728 8.7617 16.637 7.31064 16.5432 5.81561Z" fill="#2A305C"/>
<path d="M9.65022 11.0638C9.83219 11.1106 10.0142 11.1574 10.2017 11.2057C10.2555 12.0645 10.2555 12.0645 10.2017 12.3404C9.65022 12.6241 9.65022 12.6241 8.83167 12.6418C8.18258 12.63 7.53349 12.6182 6.8844 12.6064C6.03255 12.5773 6.03255 12.5773 5.51442 12.9078C4.67648 12.9355 4.67648 12.9355 3.68777 12.9255C3.36007 12.923 3.03237 12.9204 2.69475 12.9178C2.4424 12.9145 2.19005 12.9112 1.93005 12.9078C1.93005 12.8142 1.93005 12.7206 1.93005 12.6241C1.5661 12.5773 1.20215 12.5305 0.827173 12.4823C0.736185 12.1078 0.645197 11.7333 0.551453 11.3475C0.915403 11.3007 1.27935 11.2539 1.65433 11.2057C1.65433 11.2993 1.65433 11.3929 1.65433 11.4894C1.83631 11.4894 2.01828 11.4894 2.20577 11.4894C2.20577 11.6298 2.20577 11.7702 2.20577 11.9149C2.50433 11.8315 2.50433 11.8315 2.80891 11.7465C3.58437 11.6312 3.58437 11.6312 4.35984 11.8262C4.55887 11.9023 4.75791 11.9784 4.96298 12.0567C5.05396 11.9631 5.14495 11.8695 5.2387 11.773C5.51166 11.773 5.78462 11.773 6.06586 11.773C6.15684 11.5858 6.24783 11.3986 6.34158 11.2057C6.52355 11.2057 6.70553 11.2057 6.89302 11.2057C6.89302 11.2993 6.89302 11.3929 6.89302 11.4894C7.16598 11.4426 7.43894 11.3957 7.72018 11.3475C7.81116 11.5347 7.90215 11.722 7.9959 11.9149C8.17787 11.8681 8.35985 11.8213 8.54734 11.773C8.58714 11.6794 8.62695 11.5858 8.66796 11.4894C8.71915 11.3957 8.77033 11.3021 8.82306 11.2057C9.09602 11.1589 9.36898 11.1121 9.65022 11.0638Z" fill="#818084"/>
<path d="M54.5926 11.2057C54.7746 11.2057 54.9566 11.2057 55.144 11.2057C55.235 11.4397 55.326 11.6738 55.4198 11.9149C55.6927 11.9149 55.9657 11.9149 56.2469 11.9149C56.3379 11.7277 56.4289 11.5404 56.5226 11.3475C56.9302 11.32 57.3381 11.2936 57.7462 11.2677C57.9733 11.2529 58.2004 11.2381 58.4344 11.2228C58.7164 11.2143 58.7164 11.2143 59.0041 11.2057C59.2799 11.3475 59.2799 11.3475 59.3315 11.8351C59.2799 12.3404 59.2799 12.3404 58.7284 12.6241C58.1735 12.6287 57.6181 12.6324 57.0633 12.6241C56.5035 12.6129 56.5035 12.6129 55.9023 12.7039C55.4198 12.766 55.4198 12.766 54.9459 12.6995C54.1489 12.604 53.4111 12.6107 52.5936 12.6152C52.2965 12.6165 51.9994 12.6178 51.6932 12.6191C51.3542 12.6216 51.3542 12.6216 51.0082 12.6241C50.9393 11.8262 50.9393 11.8262 51.5597 11.3475C51.9236 11.3475 52.2876 11.3475 52.6626 11.3475C52.6626 11.4879 52.6626 11.6284 52.6626 11.773C53.2085 11.773 53.7544 11.773 54.3169 11.773C54.4079 11.5858 54.4989 11.3986 54.5926 11.2057ZM57.6255 11.773C57.9012 12.0567 57.9012 12.0567 57.9012 12.0567L57.6255 11.773Z" fill="#7C7B7F"/>
<path d="M14.8889 8.08511C15.6299 8.20922 15.6299 8.20922 16.2675 8.36879C16.3557 8.93593 16.3288 9.2947 15.8539 9.81383C14.8523 10.3935 13.8365 10.7029 12.3417 10.8344C10.7992 10.8756 9.49734 10.7063 8.27161 10.2128C7.35115 9.65189 6.89301 9.25327 6.89301 8.51064C7.14038 8.57646 7.14038 8.57646 7.39275 8.64362C8.02058 8.80881 8.02058 8.80881 8.82305 8.93617C8.82305 9.31064 8.82305 9.68511 8.82305 10.0709C10.2301 10.3412 11.4323 10.5569 12.9588 10.4965C12.9588 10.4028 12.9588 10.3092 12.9588 10.2128C12.7769 10.1191 12.5949 10.0255 12.4074 9.92908C12.7714 9.60142 13.1353 9.27376 13.5103 8.93617C13.6923 8.93617 13.8742 8.93617 14.0617 8.93617C14.0617 8.74894 14.0617 8.5617 14.0617 8.36879C14.3347 8.27518 14.6077 8.18156 14.8889 8.08511Z" fill="#555252"/>
<path d="M59.0041 13.0496C59.1861 13.3305 59.3681 13.6113 59.5555 13.9007C59.1136 14.1281 58.6436 14.061 58.0326 14.0614C57.775 14.0617 57.5174 14.0619 57.2519 14.0622C56.9771 14.0616 56.7023 14.0609 56.4192 14.0603C56.1434 14.06 55.8675 14.0597 55.5833 14.0595C53.7716 14.054 51.979 14.0246 50.1811 13.9007C50.1811 13.6667 50.1811 13.4326 50.1811 13.1915C53.1432 12.8167 55.9902 12.9363 59.0041 13.0496Z" fill="#565A79"/>
<path d="M45.4938 6.24113C46.4947 6.24113 47.4956 6.24113 48.5268 6.24113C48.5268 6.28794 48.5268 6.33475 48.5268 6.38298C47.6169 6.38298 46.707 6.38298 45.7695 6.38298C45.7695 6.85106 45.7695 7.31915 45.7695 7.80142C46.1676 7.78972 46.5657 7.77801 46.9758 7.76596C47.1997 7.75937 47.4237 7.75279 47.6544 7.74601C48.303 7.68905 48.303 7.68905 48.6065 7.36924C48.6711 7.27781 48.7358 7.18639 48.8025 7.0922C48.9844 7.13901 49.1664 7.18582 49.3539 7.23404C49.3539 7.84255 49.3539 8.45106 49.3539 9.07801C49.0809 9.07801 48.808 9.07801 48.5268 9.07801C48.4358 8.93759 48.3448 8.79716 48.251 8.65248C47.6704 8.53821 47.6704 8.53821 46.9931 8.48404C46.5893 8.44601 46.1855 8.40798 45.7695 8.36879C45.8605 8.9305 45.9515 9.4922 46.0453 10.0709C47.8419 10.1722 47.8419 10.1722 49.3194 9.72518C49.5128 9.60523 49.7061 9.48528 49.9054 9.3617C50.1783 9.31489 50.4513 9.26809 50.7325 9.21986C50.4913 10.3014 50.4913 10.3014 50.1811 10.7801C47.6334 10.7801 45.0858 10.7801 42.4609 10.7801C42.4609 10.6397 42.4609 10.4993 42.4609 10.3546C42.9158 10.261 43.3708 10.1674 43.8395 10.0709C43.8395 10.1645 43.8395 10.2582 43.8395 10.3546C43.6575 10.3546 43.4756 10.3546 43.2881 10.3546C43.2881 10.4482 43.2881 10.5418 43.2881 10.6383C45.6083 10.5681 45.6083 10.5681 47.9753 10.4965C47.1564 10.4496 46.3375 10.4028 45.4938 10.3546C45.4938 9.65248 45.4938 8.95035 45.4938 8.22695C45.7668 8.18014 46.0398 8.13333 46.321 8.08511C46.048 8.0383 45.7751 7.99149 45.4938 7.94326C45.4938 7.38156 45.4938 6.81986 45.4938 6.24113Z" fill="#696B89"/>
<path d="M0.827173 5.67376C1.59696 5.66613 2.36647 5.66049 3.13633 5.65603C3.35527 5.65365 3.57421 5.65128 3.79978 5.64883C4.37153 5.64633 4.94335 5.6591 5.51442 5.67376C5.69639 5.76738 5.87837 5.86099 6.06586 5.95745C5.88388 5.95745 5.70191 5.95745 5.51442 5.95745C5.51442 6.05107 5.51442 6.14468 5.51442 6.24114C4.78651 6.24114 4.05861 6.24114 3.30865 6.24114C3.30865 7.59858 3.30865 8.95603 3.30865 10.3546C3.58162 10.3546 3.85458 10.3546 4.13581 10.3546C4.13581 10.4482 4.13581 10.5418 4.13581 10.6383C3.22594 10.6383 2.31606 10.6383 1.37861 10.6383C1.37861 10.5447 1.37861 10.4511 1.37861 10.3546C1.65158 10.3546 1.92454 10.3546 2.20577 10.3546C2.11479 9.09078 2.0238 7.82695 1.93005 6.52482C1.24765 6.3844 1.24765 6.3844 0.551453 6.24114C0.64244 6.0539 0.733428 5.86667 0.827173 5.67376Z" fill="#272D5A"/>
<path d="M40.8066 12.6241C42.6087 12.7311 42.6087 12.7311 43.2751 12.9128C43.9369 13.0733 44.3532 13.0741 45.0802 13.0585C46.7014 13.0398 48.2927 13.1117 49.9053 13.1915C49.9053 13.4723 49.9053 13.7532 49.9053 14.0426C48.7795 14.0467 47.6536 14.0492 46.5278 14.0514C46.0485 14.0532 46.0485 14.0532 45.5595 14.055C45.2521 14.0555 44.9446 14.0559 44.6279 14.0564C44.2034 14.0575 44.2034 14.0575 43.7703 14.0587C43.1016 14.0445 42.5472 13.9999 41.9095 13.9007C41.9095 13.6667 41.9095 13.4326 41.9095 13.1915C41.5455 13.0979 41.1816 13.0043 40.8066 12.9078C40.8066 12.8142 40.8066 12.7206 40.8066 12.6241Z" fill="#646884"/>
<path d="M0.827173 13.0496C3.5568 13.0496 6.28643 13.0496 9.09878 13.0496C8.82582 13.0965 8.55285 13.1433 8.27162 13.1915C8.27162 13.3319 8.27162 13.4723 8.27162 13.617C8.08964 13.617 7.90767 13.617 7.72018 13.617C7.72018 13.7574 7.72018 13.8979 7.72018 14.0426C7.56024 14.0409 7.4003 14.0393 7.23551 14.0376C6.27764 14.0319 5.38891 14.0274 4.446 14.1223C3.13403 14.2168 1.86195 14.1205 0.551453 14.0426C0.64244 13.7149 0.733428 13.3872 0.827173 13.0496Z" fill="#E7E7EA"/>
<path d="M28.3992 11.2057C28.6721 11.2525 28.9451 11.2993 29.2263 11.3475C29.2263 11.4879 29.2263 11.6284 29.2263 11.773C29.6284 11.7969 30.0305 11.8205 30.4326 11.844C30.7685 11.8637 30.7685 11.8637 31.1111 11.8839C31.6993 11.9196 31.6993 11.9196 32.2592 11.9149C32.2592 11.7745 32.2592 11.634 32.2592 11.4894C32.8052 11.3957 33.3511 11.3021 33.9136 11.2057C34.0046 11.6269 34.0955 12.0482 34.1893 12.4823C33.036 12.6762 32.32 12.7892 31.1564 12.6241C30.5865 12.753 30.5865 12.753 30.0535 12.9078C29.7805 12.9078 29.5076 12.9078 29.2263 12.9078C29.0443 12.8142 28.8624 12.7206 28.6749 12.6241C27.8247 12.6005 27.8247 12.6005 27.0206 12.6241C26.9296 12.4369 26.8386 12.2496 26.7448 12.0567C26.9666 12.0216 27.1884 11.9865 27.4169 11.9504C28.1706 11.8124 28.1706 11.8124 28.3475 11.4716C28.3645 11.3839 28.3816 11.2961 28.3992 11.2057Z" fill="#949398"/>
<path d="M22.3333 8.08511C21.9239 8.29574 21.9239 8.29574 21.5062 8.51064C22.7403 9.42351 22.7403 9.42351 24.384 10.1241C24.6172 10.2002 24.8503 10.2762 25.0905 10.3546C25.0905 10.495 25.0905 10.6355 25.0905 10.7801C24.1222 10.872 23.2973 10.8944 22.3333 10.7801C20.7599 10.1072 19.8729 9.22101 19.3004 8.22695C20.3279 8.07844 21.2663 8.07455 22.3333 8.08511Z" fill="#44496F"/>
<path d="M21.7819 11.2057C22.3278 11.2057 22.8738 11.2057 23.4362 11.2057C23.4362 11.4397 23.4362 11.6738 23.4362 11.9149C24.3461 11.9149 25.256 11.9149 26.1934 11.9149C26.1934 12.1489 26.1934 12.383 26.1934 12.6241C24.2827 12.6241 22.3719 12.6241 20.4033 12.6241C20.4033 12.7177 20.4033 12.8113 20.4033 12.9078C19.6564 13.0999 19.0221 13.0589 18.1975 13.0496C18.4733 12.766 18.4733 12.766 19.0247 12.6418C19.6313 12.5073 19.6313 12.5073 19.7829 12.1809C19.8057 12.0931 19.8284 12.0053 19.8519 11.9149C20.2158 11.9617 20.5798 12.0085 20.9547 12.0567C20.9547 11.9631 20.9547 11.8695 20.9547 11.773C21.1367 11.7262 21.3187 11.6794 21.5062 11.6312C21.5972 11.4908 21.6882 11.3504 21.7819 11.2057Z" fill="#868589"/>
<path d="M27.8477 5.95744C28.9396 5.95744 30.0314 5.95744 31.1564 5.95744C30.6049 6.24113 30.6049 6.24113 29.7433 6.25886C29.4817 6.25301 29.2201 6.24716 28.9506 6.24113C28.952 6.36929 28.9535 6.49746 28.955 6.62951C28.9597 7.10347 28.9631 7.57744 28.9657 8.05141C28.9671 8.25683 28.969 8.46226 28.9714 8.66768C28.9747 8.96237 28.9763 9.25705 28.9775 9.55175C28.979 9.72928 28.9804 9.90681 28.9819 10.0897C28.9506 10.4965 28.9506 10.4965 28.6749 10.6383C28.0316 10.6441 27.3881 10.6443 26.7448 10.6383C26.7448 10.5447 26.7448 10.4511 26.7448 10.3546C27.0178 10.3546 27.2908 10.3546 27.572 10.3546C27.663 8.90354 27.754 7.45248 27.8477 5.95744Z" fill="#29305C"/>
<path d="M38.8766 5.67376C42.607 5.67376 46.3375 5.67376 50.1811 5.67376C50.1811 6.14184 50.1811 6.60993 50.1811 7.0922C49.9081 7.0922 49.6352 7.0922 49.3539 7.0922C49.2174 6.74114 49.2174 6.74114 49.0782 6.38298C49.2602 6.38298 49.4422 6.38298 49.6296 6.38298C49.6296 6.28936 49.6296 6.19575 49.6296 6.09929C47.9009 6.09929 46.1721 6.09929 44.391 6.09929C44.3 7.40993 44.209 8.72057 44.1152 10.0709C44.0243 10.0709 43.9333 10.0709 43.8395 10.0709C43.8395 8.80709 43.8395 7.54326 43.8395 6.24114C42.9296 6.28794 42.0198 6.33475 41.0823 6.38298C41.0823 6.24255 41.0823 6.10213 41.0823 5.95745C40.4454 5.91064 39.8085 5.86383 39.1523 5.8156C39.1523 5.90922 39.1523 6.00284 39.1523 6.09929C39.5162 6.09929 39.8802 6.09929 40.2552 6.09929C40.1642 6.23972 40.0732 6.38014 39.9794 6.52482C39.9794 6.43121 39.9794 6.33759 39.9794 6.24114C39.6155 6.24114 39.2515 6.24114 38.8766 6.24114C38.8766 6.0539 38.8766 5.86667 38.8766 5.67376Z" fill="#787A91"/>
<path d="M40.5309 11.3475C40.6219 11.3475 40.7129 11.3475 40.8066 11.3475C40.9064 12.391 40.9064 12.391 40.4964 12.766C39.7433 12.9726 39.1633 12.9537 38.3251 12.9078C38.1431 12.8142 37.9612 12.7206 37.7737 12.6241C37.5917 12.7177 37.4097 12.8113 37.2222 12.9078C36.6256 12.8734 36.6256 12.8734 35.947 12.7837C35.7217 12.7548 35.4964 12.7259 35.2642 12.6961C35.0915 12.6724 34.9187 12.6486 34.7408 12.6241C34.8317 12.3433 34.9227 12.0624 35.0165 11.7731C35.8436 11.7731 35.8436 11.7731 36.6708 11.9149C37.0035 11.8403 37.0035 11.8403 37.3429 11.7642C38.0494 11.6312 38.0494 11.6312 38.6181 11.7553C38.7944 11.808 38.9706 11.8606 39.1523 11.9149C39.5162 11.9149 39.8802 11.9149 40.2552 11.9149C40.3461 11.7277 40.4371 11.5404 40.5309 11.3475Z" fill="#868591"/>
<path d="M15.9918 13.1915C16.9912 13.1833 17.9907 13.1782 18.9902 13.1738C19.2749 13.1714 19.5596 13.169 19.8529 13.1666C20.1248 13.1656 20.3967 13.1647 20.6768 13.1638C21.0537 13.1616 21.0537 13.1616 21.4382 13.1593C22.0576 13.1915 22.0576 13.1915 22.609 13.4752C22.609 13.6156 22.609 13.756 22.609 13.9007C21.2833 14.0358 20.0245 14.0641 18.68 14.0603C18.3825 14.0611 18.3825 14.0611 18.079 14.0619C16.6131 14.0605 16.6131 14.0605 15.9918 13.9007C15.9918 13.6667 15.9918 13.4326 15.9918 13.1915Z" fill="#6F728B"/>
<path d="M9.65022 11.0638C9.83219 11.1106 10.0142 11.1574 10.2017 11.2057C10.2555 12.0645 10.2555 12.0645 10.2017 12.3404C9.65022 12.6241 9.65022 12.6241 8.8726 12.6518C8.57192 12.6485 8.27123 12.6452 7.96143 12.6418C7.65933 12.6393 7.35722 12.6367 7.04596 12.6341C6.81351 12.6308 6.58107 12.6275 6.34158 12.6241C6.25059 12.2028 6.1596 11.7816 6.06586 11.3475C6.33882 11.3007 6.61178 11.2539 6.89302 11.2057C6.89302 11.2993 6.89302 11.3929 6.89302 11.4894C7.16598 11.4426 7.43894 11.3957 7.72018 11.3475C7.81117 11.5347 7.90215 11.722 7.9959 11.9149C8.17787 11.8681 8.35985 11.8213 8.54734 11.773C8.58715 11.6794 8.62695 11.5858 8.66797 11.4894C8.71915 11.3957 8.77033 11.3021 8.82306 11.2057C9.09602 11.1589 9.36898 11.1121 9.65022 11.0638Z" fill="#9D9CA1"/>
<path d="M49.0782 11.2057C49.5331 11.2057 49.9881 11.2057 50.4568 11.2057C50.4568 11.6269 50.4568 12.0482 50.4568 12.4823C49.5014 12.6929 49.5014 12.6929 48.5268 12.9078C49.6186 12.9546 50.7105 13.0014 51.8354 13.0496C51.8354 13.0965 51.8354 13.1433 51.8354 13.1915C51.2895 13.1915 50.7435 13.1915 50.1811 13.1915C50.1811 13.4255 50.1811 13.6596 50.1811 13.9007C51.0909 13.9007 52.0008 13.9007 52.9383 13.9007C52.9383 13.9475 52.9383 13.9943 52.9383 14.0426C51.9374 14.0426 50.9365 14.0426 49.9054 14.0426C49.9054 13.7617 49.9054 13.4809 49.9054 13.1915C48.8135 13.1915 47.7216 13.1915 46.5967 13.1915C46.6877 13.0979 46.7787 13.0043 46.8724 12.9078C46.7814 12.7674 46.6905 12.6269 46.5967 12.4823C47.5066 12.3887 48.4165 12.295 49.3539 12.1986C49.1719 12.0582 48.99 11.9177 48.8025 11.773C48.9059 11.4628 48.9059 11.4628 49.0782 11.2057Z" fill="#B9B9BB"/>
<path d="M31.7078 13.0496C31.7988 13.0965 31.8898 13.1433 31.9835 13.1915C32.7199 13.2115 33.4516 13.1975 34.1893 13.1915C34.1893 13.4255 34.1893 13.6596 34.1893 13.9007C33.1127 14.0934 32.0635 14.0276 30.9496 13.9805C30.7573 13.9731 30.565 13.9657 30.3669 13.9581C29.8947 13.9398 29.4226 13.9203 28.9506 13.9007C28.9506 13.6667 28.9506 13.4326 28.9506 13.1915C29.8828 13.0439 30.7355 13.0274 31.7078 13.0496Z" fill="#8B8CA1"/>
<path d="M24.5391 5.67376C26.0161 5.65623 27.4928 5.64336 28.9701 5.6348C29.4726 5.63123 29.9752 5.62639 30.4776 5.62025C31.1998 5.61166 31.9215 5.60763 32.6438 5.6045C32.8687 5.60084 33.0936 5.59718 33.3253 5.59341C33.9608 5.59324 33.9608 5.59324 35.0165 5.67376C35.5783 6.0327 35.5783 6.0327 35.8436 6.38298C35.6616 6.38298 35.4797 6.38298 35.2922 6.38298C35.2922 6.28936 35.2922 6.19574 35.2922 6.09929C34.6553 6.05248 34.0184 6.00567 33.3621 5.95745C33.4986 6.16808 33.4986 6.16808 33.6379 6.38298C33.2739 6.38298 32.91 6.38298 32.535 6.38298C32.444 6.61702 32.353 6.85106 32.2593 7.0922C31.4321 6.95035 31.4321 6.95035 30.8807 6.52482C29.897 6.42041 29.897 6.42041 28.9506 6.38298C28.9506 6.33617 28.9506 6.28936 28.9506 6.24113C29.6785 6.14752 30.4064 6.0539 31.1564 5.95745C28.9727 5.91064 26.789 5.86383 24.5391 5.8156C24.5391 5.76879 24.5391 5.72198 24.5391 5.67376Z" fill="#7D7F97"/>
<path d="M40.2552 11.2057C40.7101 11.2057 41.165 11.2057 41.6338 11.2057C41.6338 11.7206 41.6338 12.2355 41.6338 12.766C41.3608 12.7191 41.0878 12.6723 40.8066 12.6241C41.1527 12.9803 41.4961 13.0314 42.1852 13.1915C42.0942 13.4255 42.0032 13.6596 41.9095 13.9007C42.1824 13.9475 42.4554 13.9943 42.7366 14.0426C40.8755 14.0603 40.8755 14.0603 40.2552 13.9007C40.2552 13.6667 40.2552 13.4326 40.2552 13.1915C39.4363 13.1213 39.4363 13.1213 38.6008 13.0496C38.7714 13.035 38.942 13.0204 39.1178 13.0053C39.8044 12.9255 39.8044 12.9255 40.2552 12.4823C40.4371 12.4823 40.6191 12.4823 40.8066 12.4823C40.3011 12.0331 40.3011 12.0331 39.428 11.773C39.61 11.773 39.7919 11.773 39.9794 11.773C40.0704 11.5858 40.1614 11.3986 40.2552 11.2057ZM40.2552 12.766C40.3461 12.9064 40.4371 13.0468 40.5309 13.1915C40.5309 13.0511 40.5309 12.9106 40.5309 12.766C40.4399 12.766 40.3489 12.766 40.2552 12.766Z" fill="#B0AEB4"/>
<path d="M45.4938 6.24113C46.4947 6.24113 47.4956 6.24113 48.5268 6.24113C48.5268 6.28794 48.5268 6.33475 48.5268 6.38298C47.6169 6.38298 46.707 6.38298 45.7696 6.38298C45.7696 6.85106 45.7696 7.31915 45.7696 7.80142C46.3667 7.78387 46.3667 7.78387 46.9758 7.76596C47.1997 7.75937 47.4237 7.75279 47.6544 7.74601C48.303 7.68905 48.303 7.68905 48.6065 7.36924C48.6711 7.27781 48.7358 7.18639 48.8025 7.0922C48.9845 7.13901 49.1664 7.18582 49.3539 7.23404C49.3539 7.84255 49.3539 8.45106 49.3539 9.07801C49.081 9.07801 48.808 9.07801 48.5268 9.07801C48.4358 8.93759 48.3448 8.79716 48.251 8.65248C47.3412 8.55887 46.4313 8.46525 45.4938 8.36879C45.7668 8.27518 46.0398 8.18156 46.321 8.08511C46.048 8.0383 45.7751 7.99149 45.4938 7.94326C45.4938 7.38156 45.4938 6.81986 45.4938 6.24113Z" fill="#9194AA"/>
<path d="M10.2016 6.24113C10.0327 6.66124 9.85597 6.86249 9.37449 7.23404C9.19251 7.23404 9.01054 7.23404 8.82305 7.23404C8.82305 7.79574 8.82305 8.35745 8.82305 8.93617C7.72017 8.79433 7.72017 8.79433 6.89301 8.51064C7.13426 7.41135 7.13426 7.41135 7.44445 7.0922C7.62642 7.0922 7.8084 7.0922 7.99589 7.0922C8.06413 7.00443 8.13237 6.91667 8.20268 6.82624C8.68692 6.40274 9.2453 6.24113 10.2016 6.24113Z" fill="#494645"/>
<path d="M51.284 5.67376C53.9226 5.67376 56.5612 5.67376 59.2798 5.67376C59.2798 6.14184 59.2798 6.60993 59.2798 7.0922C59.0069 7.0922 58.7339 7.0922 58.4527 7.0922C58.5437 6.95177 58.6347 6.81135 58.7284 6.66667C58.8194 6.43262 58.9104 6.19858 59.0041 5.95745C56.5475 5.95745 54.0908 5.95745 51.5597 5.95745C51.5597 6.19149 51.5597 6.42553 51.5597 6.66667C51.7417 6.71348 51.9236 6.76028 52.1111 6.80851C52.0201 6.90213 51.9291 6.99575 51.8354 7.0922C51.5624 7.0922 51.2895 7.0922 51.0082 7.0922C51.0992 6.62411 51.1902 6.15603 51.284 5.67376Z" fill="#7C7E94"/>
<path d="M2.20575 13.1915C3.66155 13.1915 5.11735 13.1915 6.61727 13.1915C6.61727 13.4255 6.61727 13.6596 6.61727 13.9007C6.1416 13.9564 5.66453 14.009 5.18697 14.0603C4.78873 14.1047 4.78873 14.1047 4.38243 14.15C3.48908 14.1885 3.00107 14.1027 2.20575 13.9007C2.20575 13.6667 2.20575 13.4326 2.20575 13.1915Z" fill="#555978"/>
<path d="M51.5597 11.3475C51.9236 11.3475 52.2876 11.3475 52.6626 11.3475C52.6626 11.4879 52.6626 11.6284 52.6626 11.7731C53.2085 11.7731 53.7544 11.7731 54.3169 11.7731C54.3169 12.0539 54.3169 12.3348 54.3169 12.6241C53.225 12.6241 52.1332 12.6241 51.0082 12.6241C51.0082 11.7731 51.0082 11.7731 51.5597 11.3475Z" fill="#87868B"/>
<path d="M15.1646 6.52483C16.5317 7.20546 16.5317 7.20546 16.5701 7.77593C16.5669 7.93062 16.5637 8.08531 16.5604 8.24468C16.5579 8.4001 16.5555 8.55552 16.5529 8.71565C16.5497 8.83523 16.5465 8.95481 16.5432 9.07802C16.4522 9.07802 16.3612 9.07802 16.2675 9.07802C16.2675 8.84398 16.2675 8.60993 16.2675 8.3688C15.9945 8.41561 15.7216 8.46241 15.4403 8.51064C15.2583 8.41702 15.0764 8.32341 14.8889 8.22695C14.6159 8.27376 14.343 8.32057 14.0617 8.3688C13.8596 8.65463 13.8596 8.65463 13.786 8.93617C13.493 8.67908 13.493 8.67908 13.2346 8.3688C13.3255 8.22837 13.4165 8.08795 13.5103 7.94327C13.9652 7.89646 14.4202 7.84965 14.8889 7.80142C14.9799 7.38015 15.0709 6.95887 15.1646 6.52483Z" fill="#B4B3BA"/>
<path d="M55.6955 6.09929C56.5144 6.09929 57.3332 6.09929 58.1769 6.09929C58.2679 6.28652 58.3589 6.47376 58.4527 6.66666C57.6338 6.57305 56.8149 6.47943 55.9712 6.38298C56.0622 7.6 56.1532 8.81702 56.2469 10.0709C56.6109 10.1645 56.9748 10.2582 57.3498 10.3546C57.3498 10.495 57.3498 10.6355 57.3498 10.7801C55.985 10.8269 54.6202 10.8738 53.214 10.922C53.123 10.7348 53.032 10.5475 52.9383 10.3546C53.3932 10.261 53.8481 10.1674 54.3169 10.0709C54.3169 10.1645 54.3169 10.2582 54.3169 10.3546C54.1349 10.3546 53.9529 10.3546 53.7654 10.3546C53.7654 10.4482 53.7654 10.5418 53.7654 10.6383C54.7663 10.6383 55.7672 10.6383 56.7983 10.6383C56.7983 10.5447 56.7983 10.4511 56.7983 10.3546C56.4344 10.3078 56.0704 10.261 55.6955 10.2128C55.6955 8.85532 55.6955 7.49787 55.6955 6.09929Z" fill="#41466B"/>
<path d="M53.4897 12.9078C55.3095 12.9546 57.1292 13.0014 59.0041 13.0496C59.1861 13.3305 59.3681 13.6113 59.5556 13.9007C59.2798 14.0426 59.2798 14.0426 58.6917 14.0587C58.439 14.0579 58.1863 14.0572 57.926 14.0564C57.6532 14.0559 57.3804 14.0555 57.0994 14.055C56.8124 14.0538 56.5254 14.0526 56.2297 14.0514C55.9416 14.0508 55.6535 14.0501 55.3567 14.0495C54.6425 14.0478 53.9282 14.0455 53.214 14.0426C53.214 13.9957 53.214 13.9489 53.214 13.9007C54.5788 13.9007 55.9436 13.9007 57.3498 13.9007C57.3498 13.6667 57.3498 13.4326 57.3498 13.1915C57.1173 13.1948 56.8849 13.1981 56.6454 13.2015C56.1923 13.2053 56.1923 13.2053 55.7299 13.2092C55.4292 13.2125 55.1286 13.2158 54.8188 13.2192C54.0411 13.1915 54.0411 13.1915 53.4897 12.9078Z" fill="#B1B2BF"/>
<path d="M10.8048 13.1117C11.2542 13.1334 11.2542 13.1334 11.7127 13.1555C12.0566 13.1733 12.0566 13.1733 12.4074 13.1915C12.4074 13.3787 12.4074 13.566 12.4074 13.7589C11.5908 13.9689 10.7986 13.9508 9.89146 13.9805C9.53817 13.9924 9.18488 14.0043 8.82089 14.0165C8.54863 14.0251 8.27638 14.0337 7.99588 14.0426C8.08687 13.7617 8.17786 13.4809 8.2716 13.1915C9.21646 13.0295 9.81867 13.0626 10.8048 13.1117Z" fill="#494F73"/>
<path d="M9.6502 7.23404C9.83217 7.23404 10.0141 7.23404 10.2016 7.23404C10.1106 7.70212 10.0197 8.17021 9.92592 8.65248C10.3809 8.69929 10.8358 8.7461 11.3045 8.79432C11.3955 9.12198 11.4865 9.44964 11.5802 9.78723C10.9599 9.84042 10.9599 9.84042 10.2016 9.78723C9.2519 9.28543 9.0241 8.87159 8.99536 8.19149C9.01392 7.56137 9.01392 7.56137 9.6502 7.23404Z" fill="#64636B"/>
<path d="M17.0947 11.2057C17.5496 11.2057 18.0045 11.2057 18.4733 11.2057C18.4733 11.6269 18.4733 12.0482 18.4733 12.4823C17.2186 12.6436 16.645 12.543 15.4403 12.3404C15.7161 12.0567 15.9918 11.773 16.2675 11.4894C16.5405 11.4894 16.8134 11.4894 17.0947 11.4894C17.0947 11.3957 17.0947 11.3021 17.0947 11.2057ZM17.0947 11.773C17.3704 12.0567 17.3704 12.0567 17.3704 12.0567L17.0947 11.773Z" fill="#747277"/>
<path d="M25.642 6.24113C26.2789 6.24113 26.9158 6.24113 27.572 6.24113C27.572 7.59858 27.572 8.95603 27.572 10.3546C27.299 10.3546 27.0261 10.3546 26.7448 10.3546C26.7448 10.4482 26.7448 10.5418 26.7448 10.6383C27.6928 10.6126 27.6928 10.6126 28.6749 10.4965C29.092 10.2218 29.092 10.2218 29.2263 9.92908C29.2263 10.0227 29.2263 10.1163 29.2263 10.2128C29.5903 10.2596 29.9542 10.3064 30.3292 10.3546C30.3292 10.495 30.3292 10.6355 30.3292 10.7801C28.9644 10.7801 27.5996 10.7801 26.1934 10.7801C26.2844 10.5929 26.3754 10.4057 26.4691 10.2128C26.7421 10.2128 27.0151 10.2128 27.2963 10.2128C27.2963 8.94894 27.2963 7.68511 27.2963 6.38298C26.7504 6.38298 26.2044 6.38298 25.642 6.38298C25.642 6.33617 25.642 6.28936 25.642 6.24113Z" fill="#898B9E"/>
<path d="M11.9077 5.66489C12.428 5.66928 12.428 5.66928 12.9588 5.67376C13.1408 5.86099 13.3228 6.04823 13.5103 6.24114C13.0553 6.24114 12.6004 6.24114 12.1317 6.24114C12.0407 6.14752 11.9497 6.0539 11.856 5.95745C11.7195 5.99548 11.583 6.03351 11.4424 6.0727C10.6613 6.26356 9.86535 6.40264 9.04491 6.542C8.44953 6.6645 8.44953 6.6645 7.99588 7.0922C7.8139 7.0922 7.63193 7.0922 7.44444 7.0922C7.26246 7.51348 7.08049 7.93475 6.893 8.36879C6.80201 8.36879 6.71102 8.36879 6.61728 8.36879C6.76933 7.6257 7.01134 6.95411 7.44444 6.24114C7.62641 6.28794 7.80839 6.33475 7.99588 6.38298C8.48317 6.24624 8.9701 6.10862 9.44233 5.95856C10.2775 5.71168 10.9657 5.65695 11.9077 5.66489Z" fill="#AFAEB3"/>
<path d="M22.0576 11.3475C22.651 11.8054 22.6644 11.9552 22.6091 12.4823C21.8812 12.5291 21.1533 12.5759 20.4033 12.6241C20.4033 12.7177 20.4033 12.8113 20.4033 12.9078C19.6564 13.0999 19.0221 13.0589 18.1975 13.0496C18.4733 12.766 18.4733 12.766 19.0247 12.6418C19.6313 12.5073 19.6313 12.5073 19.7829 12.1809C19.8057 12.0931 19.8284 12.0053 19.8519 11.9149C20.2158 11.9617 20.5798 12.0085 20.9547 12.0567C20.9547 11.9631 20.9547 11.8695 20.9547 11.7731C21.2277 11.7262 21.5007 11.6794 21.7819 11.6312C21.8729 11.5376 21.9639 11.444 22.0576 11.3475Z" fill="#6D6B70"/>
<path d="M0.827173 11.2057C1.10014 11.2057 1.3731 11.2057 1.65433 11.2057C1.65433 11.2993 1.65433 11.3929 1.65433 11.4894C1.83631 11.4894 2.01828 11.4894 2.20577 11.4894C2.20577 11.6298 2.20577 11.7702 2.20577 11.9149C2.38775 11.9617 2.56972 12.0085 2.75721 12.0567C2.75721 12.1504 2.75721 12.244 2.75721 12.3404C3.15931 12.5709 3.15931 12.5709 3.58437 12.766C3.03845 12.8128 2.49252 12.8596 1.93005 12.9078C1.93005 12.8142 1.93005 12.7206 1.93005 12.6241C1.5661 12.5773 1.20215 12.5305 0.827173 12.4823C0.584841 11.6096 0.584841 11.6096 0.551453 11.3475C0.64244 11.3007 0.733428 11.2539 0.827173 11.2057Z" fill="#88878B"/>
<path d="M1.93005 6.52483C2.02104 6.52483 2.11203 6.52483 2.20577 6.52483C2.20577 7.78866 2.20577 9.05249 2.20577 10.3546C1.93281 10.3546 1.65985 10.3546 1.37861 10.3546C1.37861 10.4482 1.37861 10.5418 1.37861 10.6383C2.28849 10.6383 3.19837 10.6383 4.13581 10.6383C4.13581 10.5447 4.13581 10.4511 4.13581 10.3546C3.86285 10.3546 3.58989 10.3546 3.30865 10.3546C3.30865 10.2142 3.30865 10.0738 3.30865 9.92908C3.49063 9.92908 3.67261 9.92908 3.86009 9.92908C3.86009 10.0227 3.86009 10.1163 3.86009 10.2128C4.22405 10.2596 4.588 10.3064 4.96298 10.3546C4.96298 10.495 4.96298 10.6355 4.96298 10.7801C3.50717 10.7801 2.05137 10.7801 0.551453 10.7801C0.64244 10.5929 0.733428 10.4057 0.827173 10.2128C1.19112 10.2128 1.55507 10.2128 1.93005 10.2128C1.93005 8.99575 1.93005 7.77873 1.93005 6.52483Z" fill="#85869B"/>
<path d="M10.2016 7.65958C11.0205 7.70638 11.8394 7.75319 12.6831 7.80142C12.6831 8.08227 12.6831 8.36312 12.6831 8.65248C12.1372 8.79291 12.1372 8.79291 11.5802 8.93617C11.5802 8.84256 11.5802 8.74894 11.5802 8.65248C11.1253 8.65248 10.6704 8.65248 10.2016 8.65248C9.89145 7.97873 9.89145 7.97873 10.2016 7.65958Z" fill="#E2E2E4"/>
<path d="M15.716 8.3688C15.898 8.3688 16.08 8.3688 16.2675 8.3688C16.3578 8.94972 16.3311 9.29626 15.8194 9.8227C15.1097 10.2455 14.5077 10.4284 13.5103 10.6383C13.6512 10.0038 14.1077 9.7045 14.8889 9.21986C15.1769 8.93942 15.456 8.65638 15.716 8.3688Z" fill="#53504F"/>
<path d="M40.8066 12.6241C41.7632 12.6891 42.6467 12.7505 43.5638 12.9078C43.5638 13.0014 43.5638 13.095 43.5638 13.1915C43.7458 13.1915 43.9277 13.1915 44.1152 13.1915C44.1152 13.4255 44.1152 13.6596 44.1152 13.9007C43.3873 13.9007 42.6594 13.9007 41.9095 13.9007C41.9095 13.6667 41.9095 13.4326 41.9095 13.1915C41.5455 13.0979 41.1816 13.0043 40.8066 12.9078C40.8066 12.8142 40.8066 12.7206 40.8066 12.6241Z" fill="#616373"/>
<path d="M45.4938 11.4894C45.4938 11.6298 45.4938 11.7702 45.4938 11.9149C45.8578 11.8681 46.2217 11.8213 46.5967 11.7731C46.6877 11.8667 46.7787 11.9603 46.8724 12.0567C46.6904 12.1504 46.5085 12.244 46.321 12.3404C45.7751 12.2468 45.2291 12.1532 44.6667 12.0567C44.6667 12.1972 44.6667 12.3376 44.6667 12.4823C45.0306 12.5291 45.3946 12.5759 45.7695 12.6241C45.3146 12.6241 44.8597 12.6241 44.3909 12.6241C44.3 12.7177 44.209 12.8114 44.1152 12.9078C43.5982 13.0231 43.5982 13.0231 43.0123 13.0496C42.5298 12.8457 42.5298 12.8457 42.1852 12.6241C42.3558 12.589 42.5264 12.5539 42.7022 12.5177C43.326 12.3658 43.326 12.3658 43.5638 12.0567C43.9794 11.6291 44.5776 11.4894 45.4938 11.4894Z" fill="#8D8C8F"/>
<path d="M33.9136 11.2057C34.0046 11.6269 34.0956 12.0482 34.1893 12.4823C32.3627 12.7837 32.3627 12.7837 31.4321 12.6241C31.4321 12.5773 31.4321 12.5305 31.4321 12.4823C32.069 12.4823 32.7059 12.4823 33.3621 12.4823C33.3621 12.3887 33.3621 12.295 33.3621 12.1986C32.8162 12.1986 32.2703 12.1986 31.7078 12.1986C31.7078 12.105 31.7078 12.0113 31.7078 11.9149C31.8898 11.9149 32.0718 11.9149 32.2593 11.9149C32.2593 11.7745 32.2593 11.634 32.2593 11.4894C33.2932 11.2057 33.2932 11.2057 33.9136 11.2057Z" fill="#A3A3A6"/>
<path d="M35.2922 11.6312C35.5026 11.6809 35.713 11.7307 35.9298 11.7819C36.6839 11.9608 36.6839 11.9608 37.498 11.773C37.407 12.0071 37.316 12.2411 37.2222 12.4823C37.4042 12.5291 37.5862 12.5759 37.7737 12.6241C37.5917 12.7177 37.4097 12.8113 37.2222 12.9078C36.6256 12.8734 36.6256 12.8734 35.947 12.7837C35.609 12.7404 35.609 12.7404 35.2642 12.6961C35.0051 12.6605 35.0051 12.6605 34.7408 12.6241C34.982 11.7908 34.982 11.7908 35.2922 11.6312Z" fill="#ADA3B7"/>
<path d="M22.8848 13.0496C23.9766 13.0496 25.0685 13.0496 26.1934 13.0496C26.1934 13.0965 26.1934 13.1433 26.1934 13.1915C25.5565 13.1915 24.9196 13.1915 24.2634 13.1915C24.2634 13.4255 24.2634 13.6596 24.2634 13.9007C24.9003 13.9007 25.5372 13.9007 26.1934 13.9007C26.1934 13.9475 26.1934 13.9943 26.1934 14.0426C24.5557 14.0426 22.9179 14.0426 21.2305 14.0426C21.2305 13.9957 21.2305 13.9489 21.2305 13.9007C21.6854 13.9007 22.1403 13.9007 22.6091 13.9007C22.7001 13.6199 22.791 13.339 22.8848 13.0496Z" fill="#A8AABA"/>
<path d="M28.3992 11.2057C28.6721 11.2525 28.9451 11.2993 29.2263 11.3475C29.2263 11.722 29.2263 12.0965 29.2263 12.4823C27.6409 12.6241 27.6409 12.6241 27.0206 12.6241C26.9296 12.4369 26.8386 12.2496 26.7448 12.0567C26.9666 12.0216 27.1884 11.9865 27.4169 11.9504C28.1706 11.8124 28.1706 11.8124 28.3475 11.4716C28.3645 11.3839 28.3816 11.2961 28.3992 11.2057Z" fill="#858488"/>
<path d="M12.4074 6.38298C12.8624 6.38298 13.3173 6.38298 13.786 6.38298C13.9583 6.71099 13.9583 6.71099 14.0617 7.0922C13.7888 7.30284 13.7888 7.30284 13.5103 7.51773C12.8382 7.57979 12.8382 7.57979 12.1317 7.51773C11.632 7.23404 11.632 7.23404 11.3045 6.95036C11.4865 6.80993 11.6685 6.66951 11.856 6.52482C11.856 6.61844 11.856 6.71206 11.856 6.80851C12.038 6.80851 12.2199 6.80851 12.4074 6.80851C12.4074 6.66809 12.4074 6.52766 12.4074 6.38298Z" fill="#E6E6E8"/>
<path d="M17.6461 12.3404C18.192 12.434 18.7379 12.5277 19.3004 12.6241C19.0275 12.7177 18.7545 12.8113 18.4733 12.9078C19.6561 12.9546 20.8389 13.0014 22.0576 13.0496C22.0576 13.0965 22.0576 13.1433 22.0576 13.1915C21.6027 13.1915 21.1477 13.1915 20.679 13.1915C20.588 13.3319 20.497 13.4723 20.4033 13.617C20.4033 13.4766 20.4033 13.3362 20.4033 13.1915C19.9484 13.1915 19.4934 13.1915 19.0247 13.1915C18.9337 13.3319 18.8427 13.4723 18.749 13.617C18.749 13.4766 18.749 13.3362 18.749 13.1915C17.8391 13.1915 16.9292 13.1915 15.9918 13.1915C16.0828 13.4723 16.1737 13.7532 16.2675 14.0426C15.9945 13.9957 15.7216 13.9489 15.4403 13.9007C15.5313 13.7135 15.6223 13.5262 15.7161 13.3333C15.5341 13.2865 15.3521 13.2397 15.1646 13.1915C15.729 12.9011 16.9028 12.9503 17.6461 12.9078C17.6461 12.7206 17.6461 12.5333 17.6461 12.3404Z" fill="#C3C3CB"/>
<path d="M15.1646 13.0496C15.1646 13.1433 15.1646 13.2369 15.1646 13.3333C15.3466 13.3333 15.5286 13.3333 15.7161 13.3333C15.7161 13.5206 15.7161 13.7078 15.7161 13.9007C14.7771 14.0111 13.9218 14.0567 12.9589 14.0426C12.9589 13.7617 12.9589 13.4809 12.9589 13.1915C14.5443 13.0496 14.5443 13.0496 15.1646 13.0496Z" fill="#9193A6"/>
<path d="M6.89301 8.51064C7.05792 8.55452 7.22284 8.5984 7.39275 8.64361C8.02058 8.80881 8.02058 8.80881 8.82305 8.93617C8.91403 9.40425 9.00502 9.87234 9.09877 10.3546C7.8464 10.0325 7.8464 10.0325 7.37552 9.5922C7.28311 9.50918 7.1907 9.42617 7.09549 9.34064C6.89301 9.07801 6.89301 9.07801 6.89301 8.51064Z" fill="#A2A0A4"/>
<path d="M19.8518 13.1915C21.5212 13.1638 21.5212 13.1638 22.0576 13.1915C22.6091 13.4752 22.6091 13.4752 22.6091 13.9007C20.8348 13.9709 20.8348 13.9709 19.0247 14.0426C19.2977 13.9957 19.5706 13.9489 19.8518 13.9007C19.8518 13.6667 19.8518 13.4326 19.8518 13.1915Z" fill="#6F738D"/>
<path d="M38.0494 13.0496C38.7913 13.0747 39.5186 13.1374 40.2551 13.1915C40.2551 13.4255 40.2551 13.6596 40.2551 13.9007C39.3383 14.0579 38.7051 14.0205 37.7737 13.9007C37.7619 13.6644 37.7625 13.4278 37.7737 13.1915C37.8647 13.1447 37.9556 13.0979 38.0494 13.0496Z" fill="#636785"/>
<path d="M11.3045 6.52483C11.6371 6.85563 11.9016 7.16262 12.1317 7.51773C12.4957 7.51773 12.8596 7.51773 13.2346 7.51773C13.2346 7.61135 13.2346 7.70497 13.2346 7.80142C12.2337 7.75461 11.2329 7.7078 10.2017 7.65958C10.2926 7.33192 10.3836 7.00426 10.4774 6.66667C10.7503 6.61986 11.0233 6.57305 11.3045 6.52483Z" fill="#ADACB2"/>
<path d="M38.8766 5.67376C40.0594 5.67376 41.2422 5.67376 42.4609 5.67376C42.5519 5.81418 42.6429 5.95461 42.7366 6.09929C42.9186 6.1461 43.1006 6.19291 43.2881 6.24114C42.5602 6.28794 41.8323 6.33475 41.0823 6.38298C41.0823 6.24255 41.0823 6.10213 41.0823 5.95745C40.4454 5.91064 39.8085 5.86383 39.1523 5.8156C39.1523 5.90922 39.1523 6.00284 39.1523 6.09929C39.5162 6.09929 39.8802 6.09929 40.2552 6.09929C40.1642 6.23972 40.0732 6.38014 39.9794 6.52482C39.9794 6.43121 39.9794 6.33759 39.9794 6.24114C39.6155 6.24114 39.2515 6.24114 38.8766 6.24114C38.8766 6.0539 38.8766 5.86667 38.8766 5.67376Z" fill="#8A8CA2"/>
<path d="M14.3374 13.0496C14.3374 13.0965 14.3374 13.1433 14.3374 13.1915C13.8825 13.1915 13.4276 13.1915 12.9588 13.1915C12.9588 13.3787 12.9588 13.566 12.9588 13.7589C13.1408 13.8057 13.3228 13.8525 13.5103 13.9007C12.1425 14.0883 10.7776 14.0552 9.37448 14.0426C9.37448 13.9957 9.37448 13.9489 9.37448 13.9007C10.8758 13.8305 10.8758 13.8305 12.4074 13.7589C12.4074 13.5716 12.4074 13.3844 12.4074 13.1915C11.4065 13.1915 10.4057 13.1915 9.37448 13.1915C9.37448 13.1447 9.37448 13.0979 9.37448 13.0496C12.8678 12.8606 12.8678 12.8606 14.3374 13.0496Z" fill="#B6B7C7"/>
<path d="M21.7819 11.2057C22.3278 11.2057 22.8738 11.2057 23.4362 11.2057C23.3452 11.6269 23.2543 12.0482 23.1605 12.4823C23.8884 12.4823 24.6163 12.4823 25.3663 12.4823C25.3663 12.5291 25.3663 12.5759 25.3663 12.6241C24.0015 12.6241 22.6366 12.6241 21.2305 12.6241C21.2305 12.5773 21.2305 12.5305 21.2305 12.4823C21.6854 12.4823 22.1403 12.4823 22.6091 12.4823C22.6091 12.2482 22.6091 12.0142 22.6091 11.773C22.3361 11.773 22.0631 11.773 21.7819 11.773C21.7819 11.5858 21.7819 11.3986 21.7819 11.2057Z" fill="#B3B2B6"/>
<path d="M8.82306 9.21986C8.91405 9.36028 9.00503 9.50071 9.09878 9.64539C9.28075 9.64539 9.46273 9.64539 9.65022 9.64539C9.74121 9.73901 9.83219 9.83262 9.92594 9.92908C10.4843 9.9901 10.4843 9.9901 11.1322 10.0089C11.9097 10.0408 12.4865 10.0845 13.2346 10.2128C12.9589 10.4965 12.9589 10.4965 12.2696 10.6206C10.9311 10.6452 9.99375 10.3828 8.82306 10.0709C8.82306 9.79007 8.82306 9.50922 8.82306 9.21986Z" fill="#3B3734"/>
<path d="M3.30865 7.51773C3.39964 7.70496 3.49063 7.8922 3.58437 8.08511C4.31228 7.99149 5.04018 7.89787 5.79014 7.80142C5.69915 7.98865 5.60816 8.17589 5.51442 8.36879C5.78738 8.4156 6.06034 8.46241 6.34158 8.51064C5.4317 8.51064 4.52182 8.51064 3.58437 8.51064C3.58437 8.97872 3.58437 9.44681 3.58437 9.92908C3.49339 9.92908 3.4024 9.92908 3.30865 9.92908C3.30865 9.13333 3.30865 8.33759 3.30865 7.51773Z" fill="#43486E"/>
<path d="M39.1523 5.81561C39.7892 5.86241 40.4261 5.90922 41.0823 5.95745C40.9913 7.08085 40.9003 8.20426 40.8066 9.3617C40.7156 9.3617 40.6246 9.3617 40.5309 9.3617C40.5309 8.56596 40.5309 7.77022 40.5309 6.95036C40.3489 6.95036 40.1669 6.95036 39.9794 6.95036C40.0704 6.66951 40.1614 6.38865 40.2551 6.09929C39.8912 6.09929 39.5272 6.09929 39.1523 6.09929C39.1523 6.00568 39.1523 5.91206 39.1523 5.81561Z" fill="#262C55"/>
<path d="M43.8395 13.0496C44.6584 13.0496 45.4773 13.0496 46.321 13.0496C46.321 13.0965 46.321 13.1433 46.321 13.1915C45.866 13.1915 45.4111 13.1915 44.9424 13.1915C45.0334 13.4255 45.1243 13.6596 45.2181 13.9007C46.037 13.9007 46.8559 13.9007 47.6996 13.9007C47.6996 13.9475 47.6996 13.9943 47.6996 14.0426C46.1528 14.0426 44.606 14.0426 43.0123 14.0426C43.3763 13.9957 43.7402 13.9489 44.1152 13.9007C44.0242 13.6199 43.9332 13.339 43.8395 13.0496Z" fill="#B5B7C5"/>
<path d="M33.6379 10.0709C33.7288 10.2113 33.8198 10.3518 33.9136 10.4965C35.1419 10.4262 35.1419 10.4262 36.3951 10.3546C36.3041 10.495 36.2131 10.6355 36.1193 10.7801C34.9365 10.7801 33.7537 10.7801 32.535 10.7801C32.626 10.5929 32.7169 10.4057 32.8107 10.2128C33.0837 10.166 33.3566 10.1191 33.6379 10.0709Z" fill="#6B6E8A"/>
<path d="M40.8066 6.24113C40.8976 6.24113 40.9886 6.24113 41.0823 6.24113C41.0823 7.78582 41.0823 9.3305 41.0823 10.922C39.9794 10.6383 39.9794 10.6383 39.7037 10.2128C39.8857 10.2128 40.0677 10.2128 40.2551 10.2128C40.2551 10.3064 40.2551 10.4 40.2551 10.4965C40.4371 10.4965 40.6191 10.4965 40.8066 10.4965C40.8066 9.0922 40.8066 7.68794 40.8066 6.24113Z" fill="#474C70"/>
<path d="M2.20575 13.1915C2.75168 13.1915 3.2976 13.1915 3.86007 13.1915C3.86007 13.2851 3.86007 13.3787 3.86007 13.4752C4.13303 13.522 4.406 13.5688 4.68723 13.617C4.41427 13.617 4.1413 13.617 3.86007 13.617C3.86007 13.7106 3.86007 13.8043 3.86007 13.9007C4.31501 13.9007 4.76995 13.9007 5.23867 13.9007C5.23867 13.9475 5.23867 13.9943 5.23867 14.0426C4.02257 14.188 3.32895 14.1896 2.20575 13.9007C2.20575 13.6667 2.20575 13.4326 2.20575 13.1915Z" fill="#7C7F96"/>
<path d="M8.27161 7.0922C8.7242 7.55788 8.41467 8.00361 8.27161 8.51064C7.99864 8.55745 7.72568 8.60426 7.44445 8.65248C7.26247 8.60568 7.0805 8.55887 6.89301 8.51064C6.99015 7.73601 6.99015 7.73601 7.16873 7.37589C7.7374 7.16312 7.7374 7.16312 8.27161 7.0922Z" fill="#413D3B"/>
<path d="M16.8189 6.52483C16.9099 6.52483 17.0009 6.52483 17.0947 6.52483C17.0947 7.78866 17.0947 9.05249 17.0947 10.3546C16.8217 10.3546 16.5487 10.3546 16.2675 10.3546C16.1765 10.495 16.0855 10.6355 15.9918 10.7801C15.8098 10.7801 15.6278 10.7801 15.4403 10.7801C15.5313 10.5929 15.6223 10.4057 15.7161 10.2128C16.08 10.2128 16.444 10.2128 16.8189 10.2128C16.8189 8.99575 16.8189 7.77873 16.8189 6.52483Z" fill="#8D8E9F"/>
<path d="M40.8066 12.9078C41.2615 12.9546 41.7165 13.0014 42.1852 13.0496C42.0942 13.3305 42.0032 13.6113 41.9095 13.9007C42.1824 13.9475 42.4554 13.9943 42.7366 14.0426C42.0934 14.0486 41.4498 14.0484 40.8066 14.0426C40.7156 13.9957 40.6246 13.9489 40.5309 13.9007C40.6101 13.5689 40.7016 13.2377 40.8066 12.9078Z" fill="#83869C"/>
<path d="M54.0411 10.0709C54.1321 10.1645 54.2231 10.2582 54.3169 10.3546C54.1349 10.3546 53.9529 10.3546 53.7654 10.3546C53.7654 10.4482 53.7654 10.5418 53.7654 10.6383C54.7663 10.6383 55.7672 10.6383 56.7983 10.6383C56.7983 10.5447 56.7983 10.4511 56.7983 10.3546C56.5254 10.3546 56.2524 10.3546 55.9712 10.3546C56.0622 10.261 56.1532 10.1674 56.2469 10.0709C56.6109 10.1645 56.9748 10.2582 57.3498 10.3546C57.3498 10.495 57.3498 10.6355 57.3498 10.7801C55.985 10.827 54.6202 10.8738 53.214 10.922C53.123 10.7348 53.032 10.5475 52.9383 10.3546C53.3022 10.261 53.6662 10.1674 54.0411 10.0709Z" fill="#8A8A9F"/>
<path d="M39.9794 6.95036C40.1614 6.95036 40.3434 6.95036 40.5309 6.95036C40.5309 7.69929 40.5309 8.44823 40.5309 9.21986C40.1669 9.12624 39.803 9.03263 39.428 8.93617C39.519 8.84255 39.61 8.74894 39.7037 8.65248C39.7667 8.36348 39.8168 8.0737 39.8588 7.78369C39.8819 7.62827 39.905 7.47285 39.9288 7.31272C39.9455 7.19314 39.9622 7.07356 39.9794 6.95036Z" fill="#36394D"/>
<path d="M35.5679 13.1915C36.2048 13.1915 36.8417 13.1915 37.4979 13.1915C37.4979 13.4255 37.4979 13.6596 37.4979 13.9007C36.861 13.9007 36.2241 13.9007 35.5679 13.9007C35.5679 13.6667 35.5679 13.4326 35.5679 13.1915Z" fill="#575A78"/>
<path d="M32.2592 13.1915C32.8962 13.1915 33.5331 13.1915 34.1893 13.1915C34.1893 13.4255 34.1893 13.6596 34.1893 13.9007C33.5524 13.9007 32.9155 13.9007 32.2592 13.9007C32.2592 13.6667 32.2592 13.4326 32.2592 13.1915Z" fill="#515477"/>
<path d="M24.2634 13.1915C24.9003 13.1915 25.5372 13.1915 26.1934 13.1915C26.1934 13.4255 26.1934 13.6596 26.1934 13.9007C25.5565 13.9007 24.9196 13.9007 24.2634 13.9007C24.2634 13.6667 24.2634 13.4326 24.2634 13.1915Z" fill="#545878"/>
<path d="M19.8519 11.9149C20.2158 12.0085 20.5798 12.1021 20.9547 12.1986C20.8638 12.2922 20.7728 12.3858 20.679 12.4823C20.861 12.5291 21.043 12.5759 21.2305 12.6241C20.9575 12.6241 20.6845 12.6241 20.4033 12.6241C20.4033 12.7177 20.4033 12.8113 20.4033 12.9078C19.6564 13.0999 19.0221 13.0589 18.1975 13.0496C18.4733 12.766 18.4733 12.766 19.0247 12.6418C19.6313 12.5073 19.6313 12.5073 19.7829 12.1809C19.8057 12.0931 19.8284 12.0053 19.8519 11.9149Z" fill="#79777C"/>
<path d="M40.5309 11.3475C40.6219 11.3475 40.7128 11.3475 40.8066 11.3475C40.9068 12.3955 40.9068 12.3955 40.4792 12.766C39.825 12.9516 39.336 12.9385 38.6008 12.9078C38.6918 12.8142 38.7828 12.7206 38.8766 12.6241C39.0585 12.6241 39.2405 12.6241 39.428 12.6241C39.428 12.3901 39.428 12.156 39.428 11.9149C39.701 11.9149 39.9739 11.9149 40.2552 11.9149C40.3461 11.7277 40.4371 11.5404 40.5309 11.3475Z" fill="#6C6B6F"/>
<path d="M28.9506 9.92908C29.0416 10.0227 29.1326 10.1163 29.2263 10.2128C29.7846 10.3053 29.7846 10.3053 30.3292 10.3546C30.3292 10.495 30.3292 10.6355 30.3292 10.7801C28.9644 10.7801 27.5996 10.7801 26.1934 10.7801C26.1934 10.6397 26.1934 10.4993 26.1934 10.3546C26.3754 10.3546 26.5574 10.3546 26.7449 10.3546C26.7449 10.4482 26.7449 10.5418 26.7449 10.6383C27.7002 10.5681 27.7002 10.5681 28.6749 10.4965C28.7659 10.3092 28.8569 10.122 28.9506 9.92908Z" fill="#5C5F7F"/>
<path d="M17.9218 13.1915C18.5587 13.1915 19.1956 13.1915 19.8519 13.1915C19.8519 13.4255 19.8519 13.6596 19.8519 13.9007C18.5422 14.0603 18.5422 14.0603 17.9218 13.9007C17.9218 13.6667 17.9218 13.4326 17.9218 13.1915Z" fill="#4C5173"/>
<path d="M50.1811 13.1915C50.727 13.1915 51.2729 13.1915 51.8354 13.1915C51.9264 13.4255 52.0174 13.6596 52.1111 13.9007C51.4742 13.9007 50.8373 13.9007 50.1811 13.9007C50.1811 13.6667 50.1811 13.4326 50.1811 13.1915Z" fill="#515575"/>
<path d="M0.827173 5.67376C2.37396 5.67376 3.92075 5.67376 5.51442 5.67376C5.51442 5.72057 5.51442 5.76738 5.51442 5.8156C5.28197 5.82091 5.04953 5.82621 4.81004 5.83167C4.35688 5.84566 4.35688 5.84566 3.89456 5.85993C3.59387 5.86816 3.29319 5.87639 2.98339 5.88486C2.59847 5.92079 2.59847 5.92079 2.20577 5.95745C1.93281 6.16809 1.93281 6.16809 1.65433 6.38298C1.29038 6.33617 0.926432 6.28936 0.551453 6.24114C0.64244 6.0539 0.733428 5.86667 0.827173 5.67376Z" fill="#9396A2"/>
<path d="M51.8354 13.0496C52.3813 13.0496 52.9272 13.0496 53.4897 13.0496C53.5807 13.2369 53.6717 13.4241 53.7654 13.617C53.5835 13.617 53.4015 13.617 53.214 13.617C53.214 13.7106 53.214 13.8043 53.214 13.9007C52.85 13.9007 52.4861 13.9007 52.1111 13.9007C52.0201 13.6199 51.9291 13.339 51.8354 13.0496Z" fill="#84889D"/>
<path d="M28.9506 13.1915C29.5875 13.1915 30.2244 13.1915 30.8807 13.1915C30.8807 13.4255 30.8807 13.6596 30.8807 13.9007C30.2438 13.9007 29.6068 13.9007 28.9506 13.9007C28.9506 13.6667 28.9506 13.4326 28.9506 13.1915Z" fill="#545879"/>
<path d="M14.6132 8.22695C14.82 8.44858 14.82 8.44858 14.8889 8.79433C14.5771 9.14934 14.1937 9.45675 13.786 9.78724C13.4221 9.74043 13.0581 9.69362 12.6831 9.64539C13.0623 9.29078 13.0623 9.29078 13.5103 8.93617C13.6923 8.93617 13.8742 8.93617 14.0617 8.93617C14.0617 8.74894 14.0617 8.5617 14.0617 8.3688C14.2437 8.32199 14.4257 8.27518 14.6132 8.22695Z" fill="#6C6A6F"/>
<path d="M44.6667 12.0567C45.1089 12.0491 45.5512 12.0436 45.9936 12.039C46.2399 12.0357 46.4862 12.0324 46.7399 12.029C47.4239 12.0567 47.4239 12.0567 48.251 12.3404C46.9299 12.5715 46.0297 12.6533 44.6667 12.4823C44.6667 12.3418 44.6667 12.2014 44.6667 12.0567Z" fill="#737176"/>
<path d="M44.9424 11.4894C45.1244 11.4894 45.3063 11.4894 45.4938 11.4894C45.4938 11.6298 45.4938 11.7702 45.4938 11.9149C45.8578 11.8681 46.2217 11.8213 46.5967 11.7731C46.6877 11.8667 46.7787 11.9603 46.8724 12.0567C46.6905 12.1504 46.5085 12.244 46.321 12.3404C45.7751 12.2468 45.2291 12.1532 44.6667 12.0567C44.6667 12.1972 44.6667 12.3376 44.6667 12.4823C45.0306 12.5291 45.3946 12.5759 45.7696 12.6241C45.3146 12.6241 44.8597 12.6241 44.391 12.6241C44.3 12.5305 44.209 12.4369 44.1152 12.3404C44.3729 12.0523 44.648 11.768 44.9424 11.4894Z" fill="#B0B0B3"/>
<path d="M9.6502 11.0638C9.83217 11.1106 10.0141 11.1574 10.2016 11.2057C10.2016 11.5801 10.2016 11.9546 10.2016 12.3404C9.83768 12.3872 9.47373 12.434 9.09875 12.4823C9.09875 12.061 9.09875 11.6397 9.09875 11.2057C9.28073 11.1589 9.46271 11.1121 9.6502 11.0638Z" fill="#9E9EA3"/>
<path d="M54.5926 11.2057C54.7746 11.2057 54.9566 11.2057 55.144 11.2057C55.235 11.4397 55.326 11.6738 55.4198 11.9149C55.6927 11.9617 55.9657 12.0085 56.2469 12.0567C55.701 12.0567 55.1551 12.0567 54.5926 12.0567C54.8656 12.244 55.1385 12.4312 55.4198 12.6241C55.0558 12.5773 54.6919 12.5305 54.3169 12.4823C54.29 11.6096 54.29 11.6096 54.3169 11.3475C54.4079 11.3007 54.4989 11.2539 54.5926 11.2057Z" fill="#A09FA4"/>
<path d="M8.82303 11.2057C9.34247 11.6689 9.51037 12.0966 9.6502 12.6241C9.19526 12.6241 8.74032 12.6241 8.27159 12.6241C8.08962 12.4369 7.90764 12.2496 7.72015 12.0567C8.0841 12.0567 8.44806 12.0567 8.82303 12.0567C8.74626 11.8856 8.74626 11.8856 8.66794 11.711C8.62813 11.591 8.58833 11.4711 8.54731 11.3475C8.6383 11.3007 8.72929 11.2539 8.82303 11.2057Z" fill="#818085"/>
<path d="M11.0288 11.4894C11.4837 11.4894 11.9387 11.4894 12.4074 11.4894C12.4074 11.817 12.4074 12.1447 12.4074 12.4823C12.0435 12.4823 11.6795 12.4823 11.3045 12.4823C11.2135 12.1546 11.1226 11.827 11.0288 11.4894Z" fill="#78777B"/>
<path d="M8.82306 9.07802C9.65022 9.21986 9.65022 9.21986 10.2017 9.64539C10.9083 9.74889 10.9083 9.74889 11.5803 9.78724C11.5803 9.88086 11.5803 9.97447 11.5803 10.0709C11.8532 10.1177 12.1262 10.1645 12.4074 10.2128C11.5885 10.166 10.7696 10.1192 9.92594 10.0709C9.83495 9.9305 9.74396 9.79007 9.65022 9.64539C9.46824 9.64539 9.28627 9.64539 9.09878 9.64539C9.00779 9.45816 8.9168 9.27093 8.82306 9.07802Z" fill="#4A4746"/>
<path d="M15.7161 5.67376C17.4448 5.67376 19.1736 5.67376 20.9547 5.67376C20.9547 5.72057 20.9547 5.76738 20.9547 5.8156C19.4989 5.8156 18.0431 5.8156 16.5432 5.8156C16.5432 5.95603 16.5432 6.09645 16.5432 6.24114C16.1793 6.19433 15.8153 6.14752 15.4403 6.09929C15.5313 5.95887 15.6223 5.81844 15.7161 5.67376Z" fill="#ACADB8"/>
<path d="M6.61729 13.1915C7.07222 13.1915 7.52716 13.1915 7.99589 13.1915C7.9049 13.4723 7.81391 13.7532 7.72017 14.0426C6.99226 14.0426 6.26436 14.0426 5.5144 14.0426C5.87835 13.9957 6.24231 13.9489 6.61729 13.9007C6.61729 13.6667 6.61729 13.4326 6.61729 13.1915Z" fill="#9396A9"/>
<path d="M33.3621 12.1986C33.3621 12.2922 33.3621 12.3858 33.3621 12.4823C32.2703 12.5759 31.1784 12.6695 30.0535 12.766C30.1445 12.5787 30.2355 12.3915 30.3292 12.1986C31.446 12.0071 32.2019 12.1105 33.3621 12.1986Z" fill="#848388"/>
<path d="M3.30864 11.6312C3.72222 11.7996 3.72222 11.7996 4.1358 12.0567C4.18749 12.4379 4.18749 12.4379 4.1358 12.766C3.46373 12.6507 3.46373 12.6507 2.7572 12.4823C2.66621 12.3418 2.57522 12.2014 2.48148 12.0567C2.66345 12.0567 2.84543 12.0567 3.03292 12.0567C3.1239 11.9163 3.21489 11.7759 3.30864 11.6312Z" fill="#727175"/>
<path d="M50.1811 12.4823C50.1811 12.5291 50.1811 12.5759 50.1811 12.6241C49.0293 12.8498 48.1045 12.938 46.8724 12.9078C46.7814 12.7674 46.6905 12.6269 46.5967 12.4823C47.868 12.2983 48.8958 12.3814 50.1811 12.4823Z" fill="#9D9C9F"/>
<path d="M1.93004 11.4894C2.02102 11.6298 2.11201 11.7702 2.20576 11.9149C2.38773 11.9617 2.56971 12.0085 2.7572 12.0567C2.7572 12.1504 2.7572 12.244 2.7572 12.3404C3.15929 12.5709 3.15929 12.5709 3.58436 12.766C3.03843 12.8128 2.4925 12.8596 1.93004 12.9078C1.93004 12.8142 1.93004 12.7206 1.93004 12.6241C1.65707 12.5773 1.38411 12.5305 1.10287 12.4823C1.46683 12.4823 1.83078 12.4823 2.20576 12.4823C2.11477 12.1546 2.02378 11.827 1.93004 11.4894Z" fill="#B2B1B5"/>
<path d="M34.1893 7.0922C34.2803 7.0922 34.3713 7.0922 34.465 7.0922C34.556 8.21561 34.647 9.33901 34.7407 10.4965C34.4678 10.4965 34.1948 10.4965 33.9136 10.4965C34.0046 9.37305 34.0955 8.24965 34.1893 7.0922Z" fill="#242B58"/>
<path d="M10.7531 11.3475C11.208 11.3475 11.663 11.3475 12.1317 11.3475C11.7677 11.3943 11.4038 11.4411 11.0288 11.4894C11.1198 11.817 11.2108 12.1447 11.3045 12.4823C11.7595 12.4823 12.2144 12.4823 12.6831 12.4823C12.4102 12.6227 12.1372 12.7631 11.856 12.9078C11.583 12.861 11.31 12.8142 11.0288 12.766C10.9378 12.2979 10.8468 11.8298 10.7531 11.3475Z" fill="#A4A3A9"/>
<path d="M18.4733 9.92908C18.5642 10.0227 18.6552 10.1163 18.749 10.2128C19.4458 10.3058 19.4458 10.3058 20.1276 10.3546C20.1276 10.495 20.1276 10.6355 20.1276 10.7801C19.3997 10.7801 18.6718 10.7801 17.9218 10.7801C18.1038 10.4993 18.2858 10.2184 18.4733 9.92908Z" fill="#6F728E"/>
<path d="M33.9136 11.2057C34.0046 11.6269 34.0955 12.0482 34.1893 12.4823C34.0699 12.3887 33.9505 12.295 33.8274 12.1986C33.5971 12.0582 33.5971 12.0582 33.3621 11.9149C33.0892 11.9149 32.8162 11.9149 32.535 11.9149C32.535 11.7745 32.535 11.634 32.535 11.4894C33.3621 11.2057 33.3621 11.2057 33.9136 11.2057Z" fill="#898891"/>
<path d="M45.4938 5.95744C46.1774 5.95364 46.8609 5.95081 47.5445 5.94858C47.7395 5.94739 47.9344 5.9462 48.1353 5.94498C48.6334 5.94375 49.1317 5.95004 49.6296 5.95744C49.9054 6.09929 49.9054 6.09929 49.9226 6.53369C49.9169 6.67119 49.9112 6.80869 49.9054 6.95035C49.8144 6.76312 49.7234 6.57588 49.6296 6.38298C49.4477 6.38298 49.2657 6.38298 49.0782 6.38298C49.0782 6.28936 49.0782 6.19574 49.0782 6.09929C47.8954 6.09929 46.7125 6.09929 45.4938 6.09929C45.4938 6.05248 45.4938 6.00567 45.4938 5.95744Z" fill="#2A305C"/>
<path d="M58.4527 11.3475C58.7256 11.3475 58.9986 11.3475 59.2798 11.3475C59.2798 11.6752 59.2798 12.0028 59.2798 12.3404C58.7339 12.4809 58.7339 12.4809 58.1769 12.6241C58.2679 12.2028 58.3589 11.7816 58.4527 11.3475Z" fill="#A4A3A6"/>
<path d="M49.0782 11.2057C49.5331 11.2057 49.9881 11.2057 50.4568 11.2057C50.4568 11.6269 50.4568 12.0482 50.4568 12.4823C49.6296 12.1986 49.6296 12.1986 49.4401 11.8972C49.4116 11.8094 49.3832 11.7216 49.3539 11.6312C49.1719 11.6312 48.9899 11.6312 48.8025 11.6312C48.8934 11.4908 48.9844 11.3504 49.0782 11.2057Z" fill="#B2B1B4"/>
<path d="M6.89301 8.51064C7.57348 8.674 8.00908 8.80111 8.54733 9.07801C8.54733 9.26525 8.54733 9.45248 8.54733 9.64539C7.99589 9.64539 7.99589 9.64539 7.40998 9.39716C6.89301 9.07801 6.89301 9.07801 6.89301 8.51064Z" fill="#D2D2D5"/>
<path d="M12.4074 6.38298C12.8623 6.38298 13.3173 6.38298 13.786 6.38298C13.9583 6.71099 13.9583 6.71099 14.0617 7.0922C13.7888 7.30284 13.7888 7.30284 13.5103 7.51773C12.7865 7.54433 12.7865 7.54433 12.1317 7.51773C12.4956 7.47092 12.8596 7.42412 13.2346 7.37589C13.3256 7.09504 13.4165 6.81419 13.5103 6.52482C13.1463 6.57163 12.7824 6.61844 12.4074 6.66667C12.4074 6.57305 12.4074 6.47943 12.4074 6.38298Z" fill="#DCDCDF"/>
<path d="M44.9424 13.1915C45.3973 13.1915 45.8523 13.1915 46.321 13.1915C46.321 13.4255 46.321 13.6596 46.321 13.9007C45.957 13.9007 45.5931 13.9007 45.2181 13.9007C45.1271 13.6667 45.0361 13.4326 44.9424 13.1915Z" fill="#484D70"/>
<path d="M12.9588 11.773C13.1408 11.773 13.3228 11.773 13.5103 11.773C13.522 12.104 13.5216 12.435 13.5103 12.766C13.2346 12.9078 13.2346 12.9078 12.528 12.9167C12.3062 12.9137 12.0845 12.9108 11.856 12.9078C12.0521 12.7849 12.0521 12.7849 12.2523 12.6596C12.6689 12.3509 12.8321 12.1382 12.9588 11.773Z" fill="#838187"/>
<path d="M57.6255 11.2057C57.9357 11.7376 57.9357 11.7376 57.6255 12.0567C57.2616 12.0567 56.8976 12.0567 56.5226 12.0567C56.5226 11.8227 56.5226 11.5887 56.5226 11.3475C56.8866 11.3007 57.2505 11.2539 57.6255 11.2057Z" fill="#A7A7B0"/>
<path d="M51.5597 11.3475C51.9236 11.3475 52.2876 11.3475 52.6625 11.3475C52.6625 11.4879 52.6625 11.6284 52.6625 11.7731C53.2085 11.7731 53.7544 11.7731 54.3169 11.7731C54.3169 11.8199 54.3169 11.8667 54.3169 11.9149C53.9148 11.9187 53.5127 11.9215 53.1106 11.9238C52.8867 11.9254 52.6628 11.9271 52.4321 11.9287C51.8354 11.9149 51.8354 11.9149 51.2839 11.7731C51.3749 11.6326 51.4659 11.4922 51.5597 11.3475Z" fill="#98979B"/>
<path d="M17.0946 11.2057C17.5496 11.2057 18.0045 11.2057 18.4732 11.2057C18.1093 11.2525 17.7453 11.2993 17.3704 11.3475C17.2794 11.5816 17.1884 11.8156 17.0946 12.0567C16.7307 12.0099 16.3667 11.9631 15.9918 11.9149C16.0827 11.7745 16.1737 11.634 16.2675 11.4894C16.5404 11.4894 16.8134 11.4894 17.0946 11.4894C17.0946 11.3957 17.0946 11.3021 17.0946 11.2057Z" fill="#A0A0AA"/>
<path d="M46.321 13.0496C46.6849 13.0965 47.0489 13.1433 47.4239 13.1915C47.4239 13.4255 47.4239 13.6596 47.4239 13.9007C47.0599 13.9007 46.696 13.9007 46.321 13.9007C46.321 13.6199 46.321 13.339 46.321 13.0496Z" fill="#585C7A"/>
<path d="M9.09876 13.0496C9.28074 13.0965 9.46271 13.1433 9.6502 13.1915C9.55921 13.2851 9.46823 13.3787 9.37448 13.4752C9.27751 13.6636 9.18487 13.8527 9.09876 14.0426C8.73481 14.0426 8.37086 14.0426 7.99588 14.0426C8.08687 13.7617 8.17786 13.4809 8.2716 13.1915C8.54456 13.1447 8.81753 13.0979 9.09876 13.0496Z" fill="#797B91"/>
<path d="M11.856 7.80142C12.1289 7.80142 12.4019 7.80142 12.6831 7.80142C12.6831 8.08227 12.6831 8.36312 12.6831 8.65249C12.1372 8.79291 12.1372 8.79291 11.5803 8.93617C11.6712 8.56171 11.7622 8.18724 11.856 7.80142Z" fill="#DEDEE0"/>
<path d="M5.5144 13.1915C5.87835 13.1915 6.24231 13.1915 6.61729 13.1915C6.61729 13.4255 6.61729 13.6596 6.61729 13.9007C6.25333 13.9007 5.88938 13.9007 5.5144 13.9007C5.5144 13.6667 5.5144 13.4326 5.5144 13.1915Z" fill="#444A6D"/>
<path d="M0.827148 13.1915C1.1911 13.1915 1.55505 13.1915 1.93003 13.1915C1.93003 13.4255 1.93003 13.6596 1.93003 13.9007C1.56608 13.9007 1.20213 13.9007 0.827148 13.9007C0.827148 13.6667 0.827148 13.4326 0.827148 13.1915Z" fill="#555979"/>
<path d="M43.0123 13.1915C43.3763 13.1915 43.7402 13.1915 44.1152 13.1915C44.1152 13.4255 44.1152 13.6596 44.1152 13.9007C43.7513 13.9007 43.3873 13.9007 43.0123 13.9007C43.0123 13.6667 43.0123 13.4326 43.0123 13.1915Z" fill="#4C5071"/>
<path d="M15.4403 12.0567C16.1682 12.1035 16.8961 12.1504 17.6461 12.1986C17.5551 12.339 17.4641 12.4794 17.3704 12.6241C16.7335 12.5305 16.0966 12.4369 15.4403 12.3404C15.4403 12.2468 15.4403 12.1532 15.4403 12.0567Z" fill="#66656A"/>
<path d="M43.5638 10.0709C43.6548 10.1645 43.7458 10.2582 43.8395 10.3546C43.6575 10.3546 43.4756 10.3546 43.2881 10.3546C43.2881 10.4482 43.2881 10.5418 43.2881 10.6383C43.925 10.6383 44.5619 10.6383 45.2181 10.6383C45.2181 10.6851 45.2181 10.7319 45.2181 10.7801C44.3082 10.7801 43.3984 10.7801 42.4609 10.7801C42.4609 10.6397 42.4609 10.4993 42.4609 10.3546C42.8249 10.261 43.1888 10.1674 43.5638 10.0709Z" fill="#747692"/>
<path d="M14.0617 7.80142C14.2437 7.84823 14.4257 7.89504 14.6132 7.94327C14.6132 8.08369 14.6132 8.22412 14.6132 8.3688C14.4312 8.3688 14.2492 8.3688 14.0617 8.3688C13.9707 8.55603 13.8797 8.74327 13.786 8.93617C13.493 8.67908 13.493 8.67908 13.2346 8.3688C13.3255 8.22837 13.4165 8.08795 13.5103 7.94327C13.6923 7.89646 13.8742 7.84965 14.0617 7.80142Z" fill="#B0AFB7"/>
<path d="M11.0288 7.94326C11.3928 7.94326 11.7567 7.94326 12.1317 7.94326C12.0407 8.13049 11.9497 8.31773 11.856 8.51064C11.492 8.51064 11.1281 8.51064 10.7531 8.51064C10.8441 8.3234 10.9351 8.13617 11.0288 7.94326Z" fill="#ECECED"/>
<path d="M11.3045 5.81561C11.7665 5.85618 12.2265 5.90324 12.6831 5.95745C12.1834 6.24114 12.1834 6.24114 11.5802 6.52483C11.3073 6.52483 11.0343 6.52483 10.7531 6.52483C10.9943 5.97518 10.9943 5.97518 11.3045 5.81561Z" fill="#4B4847"/>
<path d="M9.65022 13.1915C9.83219 13.1915 10.0142 13.1915 10.2017 13.1915C10.2017 13.4255 10.2017 13.6596 10.2017 13.9007C9.74672 13.9007 9.29178 13.9007 8.82306 13.9007C9.34003 13.3511 9.34003 13.3511 9.65022 13.1915Z" fill="#525678"/>
<path d="M35.2922 11.6312C35.7471 11.7716 36.2021 11.9121 36.6708 12.0567C36.5798 12.1972 36.4888 12.3376 36.3951 12.4823C36.0311 12.4355 35.6672 12.3886 35.2922 12.3404C35.2922 12.1064 35.2922 11.8723 35.2922 11.6312Z" fill="#676569"/>
<path d="M23.9877 10.2128C24.3516 10.2596 24.7156 10.3064 25.0905 10.3546C25.0905 10.495 25.0905 10.6355 25.0905 10.7801C24.1807 10.7801 23.2708 10.7801 22.3333 10.7801C22.3333 10.7333 22.3333 10.6865 22.3333 10.6383C22.9703 10.6383 23.6072 10.6383 24.2634 10.6383C24.1724 10.4979 24.0814 10.3574 23.9877 10.2128Z" fill="#5E607F"/>
<path d="M13.2346 9.50355C12.8727 9.78723 12.8727 9.78723 12.4074 10.0709C12.1345 10.0709 11.8615 10.0709 11.5803 10.0709C11.5803 9.88369 11.5803 9.69645 11.5803 9.50355C12.4074 9.3617 12.4074 9.3617 13.2346 9.50355Z" fill="#ACABB2"/>
<path d="M48.8025 7.37589C48.8935 7.37589 48.9844 7.37589 49.0782 7.37589C49.0782 7.93759 49.0782 8.49929 49.0782 9.07801C48.9872 9.07801 48.8962 9.07801 48.8025 9.07801C48.8025 8.84397 48.8025 8.60993 48.8025 8.36879C48.5295 8.32198 48.2565 8.27518 47.9753 8.22695C48.1573 8.18014 48.3393 8.13333 48.5268 8.0851C48.7075 7.72662 48.7075 7.72662 48.8025 7.37589Z" fill="#272E5B"/>
<path d="M11.0288 7.23404C11.5382 7.28224 11.5382 7.28224 12.1489 7.36702C12.4523 7.40843 12.4523 7.40843 12.7617 7.45068C12.9958 7.48387 12.9958 7.48387 13.2346 7.51773C13.2346 7.61134 13.2346 7.70496 13.2346 7.80142C12.6886 7.80142 12.1427 7.80142 11.5802 7.80142C11.5802 7.7078 11.5802 7.61418 11.5802 7.51773C11.3073 7.47092 11.0343 7.42411 10.7531 7.37588C10.8441 7.32907 10.9351 7.28227 11.0288 7.23404Z" fill="#9999A4"/>
<path d="M51.284 5.81561C51.3749 5.81561 51.4659 5.81561 51.5597 5.81561C51.5597 6.09646 51.5597 6.37731 51.5597 6.66667C51.7417 6.71348 51.9236 6.76029 52.1111 6.80851C52.0201 6.90213 51.9291 6.99575 51.8354 7.0922C51.5624 7.0922 51.2895 7.0922 51.0082 7.0922C51.0992 6.67092 51.1902 6.24965 51.284 5.81561Z" fill="#3C3F7C"/>
<path d="M12.9589 13.1915C13.3228 13.1915 13.6868 13.1915 14.0617 13.1915C14.0617 13.4255 14.0617 13.6596 14.0617 13.9007C13.6978 13.8539 13.3338 13.8071 12.9589 13.7589C12.9589 13.5716 12.9589 13.3844 12.9589 13.1915Z" fill="#4A4E70"/>
<path d="M3.86007 11.773C4.406 11.9135 4.406 11.9135 4.96295 12.0567C4.96295 12.244 4.96295 12.4312 4.96295 12.6241C4.68999 12.6709 4.41703 12.7177 4.13579 12.766C4.0448 12.4383 3.95382 12.1106 3.86007 11.773ZM3.58435 12.766C4.13579 12.9078 4.13579 12.9078 4.13579 12.9078L3.58435 12.766Z" fill="#99999F"/>
<path d="M50.1811 9.21986C50.3631 9.21986 50.545 9.21986 50.7325 9.21986C50.6415 9.59432 50.5505 9.96879 50.4568 10.3546C50.1838 10.2142 49.9109 10.0738 49.6296 9.92908C49.8116 9.69503 49.9936 9.46099 50.1811 9.21986Z" fill="#7C839C"/>
<path d="M21.5062 13.1915C22.0521 13.3319 22.0521 13.3319 22.609 13.4752C22.609 13.6156 22.609 13.756 22.609 13.9007C22.2451 13.9007 21.8811 13.9007 21.5062 13.9007C21.5062 13.6667 21.5062 13.4326 21.5062 13.1915Z" fill="#888AA1"/>
<path d="M36.6708 13.1915C36.9437 13.1915 37.2167 13.1915 37.4979 13.1915C37.4979 13.4255 37.4979 13.6596 37.4979 13.9007C37.225 13.9007 36.952 13.9007 36.6708 13.9007C36.5157 13.6259 36.5157 13.6259 36.3951 13.3333C36.486 13.2865 36.577 13.2397 36.6708 13.1915Z" fill="#4F5374"/>
<path d="M16.2675 10.3546C16.9044 10.4014 17.5413 10.4482 18.1975 10.4965C18.1065 10.5901 18.0155 10.6837 17.9218 10.7801C17.2849 10.7801 16.648 10.7801 15.9918 10.7801C16.0827 10.6397 16.1737 10.4993 16.2675 10.3546Z" fill="#3E4167"/>
<path d="M49.3539 9.78723C49.6269 9.78723 49.8998 9.78723 50.1811 9.78723C50.1811 10.0213 50.1811 10.2553 50.1811 10.4965C49.7261 10.4965 49.2712 10.4965 48.8025 10.4965C48.9844 10.2624 49.1664 10.0284 49.3539 9.78723Z" fill="#2A3159"/>
<path d="M11.5803 5.67376C12.0352 5.67376 12.4901 5.67376 12.9589 5.67376C13.1408 5.86099 13.3228 6.04823 13.5103 6.24114C13.0554 6.24114 12.6004 6.24114 12.1317 6.24114C11.9497 6.0539 11.7678 5.86667 11.5803 5.67376Z" fill="#747375"/>
</svg>
