<svg width="136" height="90" viewBox="0 0 136 90" fill="none" xmlns="http://www.w3.org/2000/svg">
<path d="M132.47 29.1052C135.92 38.0572 136.451 47.8702 133.987 57.1422C131.523 66.4142 126.19 74.6692 118.751 80.7272C111.311 86.7852 102.147 90.3352 92.569 90.8702C82.99 91.4052 73.488 88.8972 65.42 83.7052L64.92 83.3852L81.2 70.2952C85.368 71.7832 89.843 72.1962 94.212 71.4972C98.582 70.7982 102.705 69.0092 106.2 66.2952L106.56 66.0052V66.0352C110.01 63.2622 112.705 59.6642 114.397 55.5752C116.088 51.4852 116.722 47.0352 116.24 42.6352L116.18 42.1952L132.47 29.1052ZM31.9 10.7052V89.4252H24V51.6452L14.5 44.9252L24 44.8052V10.7152H31.91L31.9 10.7052ZM118.7 10.1652C123.512 14.0812 127.476 18.9362 130.35 24.4352L130.67 25.0452L61.37 80.7652C56.561 76.8522 52.6 72.0002 49.73 66.5052L49.41 65.8952L118.71 10.1652H118.7ZM61.23 65.1152C60.762 64.8592 60.232 64.7372 59.699 64.7632C59.166 64.7892 58.651 64.9632 58.21 65.2642L58.05 65.3842L55.83 67.1442L61.3 73.9442L62.81 72.7242L60.96 70.4042L61.61 69.8842C62.16 69.4542 62.53 68.8342 62.65 68.1542L62.68 67.9542H62.72C62.78 67.3862 62.67 66.8142 62.405 66.3082C62.14 65.8022 61.731 65.3882 61.23 65.1152ZM62.99 61.3652L61.5 62.5952L66.95 69.4152L71.05 66.1152L69.82 64.5752L67.22 66.6452L62.98 61.3652H62.99ZM59.89 66.4852C60.14 66.5252 60.38 66.6552 60.55 66.8452L60.63 66.9452C60.82 67.1452 60.9 67.4152 60.87 67.6852C60.85 67.8852 60.76 68.0852 60.61 68.2252L60.51 68.3152L59.78 68.9152L58.48 67.3152L59.22 66.7152C59.405 66.5542 59.645 66.4712 59.89 66.4852ZM70.8 55.1352L69.18 56.4352L71.88 65.4052V65.4652L73.51 64.1852L73.13 62.8752L76.15 60.4352L77.33 61.0752L79 59.7152L70.8 55.1352ZM61.58 10.0352C69.019 4.05419 78.151 0.565189 87.683 0.0631891C97.215 -0.439811 106.663 2.07019 114.69 7.23519L115.19 7.55519L98.9 20.6352C94.732 19.1492 90.257 18.7372 85.888 19.4362C81.519 20.1352 77.396 21.9232 73.9 24.6352L73.54 24.9252H73.55C70.104 27.7002 67.411 31.2982 65.722 35.3882C64.032 39.4772 63.399 43.9262 63.88 48.3252L63.93 48.7752L47.65 61.8552C44.177 52.8562 43.654 42.9872 46.158 33.6722C48.662 24.3572 54.063 16.0792 61.58 10.0352ZM71.46 57.7052L74.36 59.2352L72.36 60.8452L71.46 57.7052ZM77.99 49.3052L73.72 52.7452L74.95 54.2752L76.31 53.1652L80.58 58.4652L82.1 57.2352L77.86 51.9652L79.23 50.8552L77.99 49.3052ZM83.59 44.8452L79.64 48.0152L85.11 54.8152L89.06 51.6452L87.84 50.1152L85.41 52.0752L84.51 50.9552L86.25 49.5652L85 48.0352L83.26 49.4352L82.37 48.3252L84.8 46.3652L83.57 44.8452H83.59ZM89.36 40.2052L85.4 43.3852L90.87 50.1852L92.4 48.9652L90.27 46.3252L92.01 44.9252L90.78 43.4052L89.05 44.8052L88.15 43.6852L90.55 41.7452L89.35 40.2052H89.36ZM99.95 37.2952C99.199 36.3632 98.109 35.7662 96.919 35.6352C95.729 35.5042 94.536 35.8492 93.6 36.5952C92.74 37.3512 92.199 38.4042 92.086 39.5432C91.973 40.6822 92.296 41.8212 92.99 42.7312C93.684 43.6412 94.698 44.2542 95.826 44.4462C96.954 44.6382 98.114 44.3942 99.069 43.7652L99.259 43.6352L99.429 43.4852C100.293 42.7152 100.829 41.6422 100.926 40.4892C101.022 39.3362 100.673 38.1892 99.949 37.2852L99.95 37.2952ZM94.82 38.1252C95.181 37.8432 95.611 37.6632 96.065 37.6022C96.519 37.5412 96.981 37.6022 97.404 37.7802C97.827 37.9572 98.194 38.2442 98.47 38.6102C98.745 38.9762 98.918 39.4092 98.97 39.8652C99.012 40.2982 98.942 40.7352 98.768 41.1352C98.594 41.5342 98.321 41.8822 97.975 42.1472C97.629 42.4112 97.221 42.5832 96.79 42.6452C96.359 42.7082 95.919 42.6592 95.512 42.5052C95.105 42.3502 94.744 42.0942 94.463 41.7612C94.182 41.4282 93.991 41.0292 93.908 40.6022C93.825 40.1752 93.852 39.7332 93.987 39.3192C94.122 38.9052 94.36 38.5322 94.679 38.2362L94.819 38.1262L94.82 38.1252ZM102.82 30.4452C102.12 30.3752 101.42 30.5552 100.86 30.9652L100.7 31.0852L98.52 32.8452L103.99 39.6452L105.51 38.4252L102.81 35.0752L106.81 37.3752L108.37 36.1152L105.18 34.3652C105.58 33.4152 105.41 32.3252 104.75 31.5352C104.28 30.9252 103.58 30.5352 102.82 30.4452ZM112.18 21.8852L110.59 23.1552L112.52 29.4952L106.76 26.2752L105.17 27.5452L109.43 35.2752L111.03 33.9752L108.52 29.4352L113.32 32.1152L114.92 30.8352L113.32 25.5252L117.25 28.9752L118.84 27.7052L112.18 21.8852ZM102.43 32.2152H102.56C102.81 32.2452 103.05 32.3752 103.2 32.5752C103.67 33.1552 103.53 33.8452 102.71 34.6552L102.56 34.7952L101.12 33.0152L101.86 32.4252C102.03 32.2952 102.23 32.2252 102.44 32.2152H102.43ZM6 44.9252H14.5L24 51.6452L6 50.8552V70.1402V89.4252L-2.86102e-06 90.8702L0 11.8152H6V18.1952V44.9252ZM118.56 16.6552L114.58 19.8552L120.06 26.6552L124.03 23.4552L122.81 21.9352L120.36 23.9152L119.44 22.8152L121.2 21.4052L119.97 19.8752L118.23 21.3352L117.33 20.2152L119.82 18.1952L118.56 16.6552Z" fill="#041676"/>
</svg>
