<svg width="48" height="48" viewBox="0 0 48 48" fill="none" xmlns="http://www.w3.org/2000/svg">
<path d="M46.394 15.9C48.216 20.625 48.496 25.805 47.195 30.698C45.894 35.592 43.078 39.949 39.151 43.146C35.223 46.343 30.385 48.217 25.327 48.5C20.27 48.782 15.253 47.459 10.993 44.718L10.729 44.549L19.324 37.64C21.524 38.425 23.887 38.643 26.194 38.274C28.501 37.905 30.678 36.961 32.523 35.528L32.713 35.375V35.391C34.535 33.927 35.957 32.028 36.851 29.87C37.744 27.711 38.079 25.362 37.824 23.04L37.792 22.808L46.393 15.899L46.394 15.9ZM39.124 5.903C42.5 8.53799 21.827 21.217 25.327 19.217L30 23.04L37.792 17.038L44.5 12.038L45.444 13.757L37.824 19.217L8.96498 41.538L7.5 40.5L27 24.5L25.327 23.04C24 17.038 4.22498 38.541 2.70898 35.64L2.53998 35.318L39.129 5.903H39.124ZM8.96598 5.834C12.893 2.678 17.715 0.836997 22.747 0.570997C27.78 0.305997 32.768 1.63 37.006 4.357L37.27 4.526L28.669 11.43C26.469 10.646 24.106 10.428 21.799 10.797C19.492 11.166 17.315 12.11 15.47 13.541L15.28 13.694H15.285C13.465 15.159 12.044 17.058 11.152 19.217C10.26 21.375 9.92498 23.724 10.18 26.045L10.206 26.283L1.61098 33.187C-0.223017 28.437 -0.499017 23.227 0.822983 18.311C2.14498 13.394 4.99598 9.025 8.96498 5.835L8.96598 5.834Z" fill="#041676"/>
</svg>
