<svg width="58" height="62" viewBox="0 0 58 62" fill="none" xmlns="http://www.w3.org/2000/svg">
<path d="M1.4 43V42.6H2.24C2.88 42.6 3.41333 42.5067 3.84 42.32C4.29333 42.1333 4.62667 41.84 4.84 41.44C5.08 41.0133 5.2 40.4667 5.2 39.8V17.48C5.2 16.84 5.08 16.3333 4.84 15.96C4.62667 15.56 4.29333 15.28 3.84 15.12C3.41333 14.9333 2.88 14.84 2.24 14.84H1.4V14.44H13.92C16.72 14.44 19.1067 14.9867 21.08 16.08C23.08 17.1467 24.6133 18.7333 25.68 20.84C26.7467 22.9467 27.28 25.52 27.28 28.56C27.28 31.4667 26.7733 34 25.76 36.16C24.7733 38.32 23.2933 40 21.32 41.2C19.3467 42.4 16.88 43 13.92 43H1.4ZM13 42.6C15.16 42.6 16.92 42.12 18.28 41.16C19.64 40.2 20.6267 38.6933 21.24 36.64C21.88 34.56 22.2 31.8667 22.2 28.56C22.2 25.3333 21.88 22.72 21.24 20.72C20.6267 18.6933 19.64 17.2133 18.28 16.28C16.9467 15.32 15.2 14.84 13.04 14.84H9.84V42.6H13Z" fill="#041676"/>
<path d="M24.4 59V58.6H25.24C25.88 58.6 26.4133 58.5067 26.84 58.32C27.2933 58.1333 27.6267 57.84 27.84 57.44C28.08 57.04 28.2 56.5067 28.2 55.84V33.52C28.2 32.88 28.08 32.36 27.84 31.96C27.6267 31.56 27.2933 31.28 26.84 31.12C26.4133 30.9333 25.88 30.84 25.24 30.84H24.4V30.44H45.12L45.36 37.52H44.96L44.84 36.2C44.76 34.8667 44.52 33.8133 44.12 33.04C43.72 32.24 43.1067 31.68 42.28 31.36C41.4533 31.0133 40.36 30.84 39 30.84H32.88V44.52H42.76V44.92H32.88V55.8C32.88 56.4667 32.9867 57.0133 33.2 57.44C33.4133 57.84 33.7467 58.1333 34.2 58.32C34.6533 58.5067 35.1867 58.6 35.8 58.6H36.88V59H24.4Z" fill="#041676"/>
<path d="M0.52 43.68V45.772C0.52 45.804 0.585333 45.82 0.716 45.82C0.849333 45.82 0.986667 45.8 1.128 45.76C1.272 45.7173 1.404 45.656 1.524 45.576C1.64667 45.4933 1.744 45.3813 1.816 45.24C1.888 45.096 1.924 44.9173 1.924 44.704C1.924 44.4907 1.864 44.2973 1.744 44.124C1.51733 43.796 1.168 43.632 0.696 43.632C0.578667 43.632 0.52 43.648 0.52 43.68ZM0.292 43.66H0.2C0.133333 43.66 0.1 43.6253 0.1 43.556C0.1 43.484 0.132 43.448 0.196 43.448H0.672C1.10133 43.4507 1.45333 43.5653 1.728 43.792C2.00533 44.016 2.144 44.332 2.144 44.74C2.144 45.148 2.00667 45.46 1.732 45.676C1.46 45.892 1.1 46 0.652 46H0.196C0.132 46 0.1 45.9653 0.1 45.896C0.1 45.8267 0.132 45.792 0.196 45.792H0.292V43.66ZM6.16313 45.792H7.05113L7.46313 45.392C7.48179 45.3733 7.50179 45.364 7.52313 45.364C7.57913 45.364 7.60713 45.388 7.60713 45.436C7.60713 45.452 7.59913 45.4733 7.58313 45.5L7.29513 45.948C7.27379 45.9827 7.23779 46 7.18713 46H5.83913C5.77513 46 5.74313 45.9653 5.74313 45.896C5.74313 45.8267 5.77513 45.792 5.83913 45.792H5.93513V43.66H5.83913C5.77513 43.66 5.74313 43.6253 5.74313 43.556C5.74313 43.484 5.77513 43.448 5.83913 43.448H6.78713C6.83779 43.448 6.87646 43.4613 6.90313 43.488L7.15513 43.78C7.17379 43.8013 7.18313 43.8227 7.18313 43.844C7.18313 43.8653 7.17513 43.884 7.15913 43.9C7.14579 43.9133 7.12579 43.92 7.09913 43.92C7.07246 43.92 7.04846 43.9093 7.02713 43.888L6.74313 43.64H6.16313V44.092H6.58313C6.56713 44.068 6.55913 44.0427 6.55913 44.016C6.55913 43.9893 6.56846 43.9667 6.58713 43.948C6.60846 43.9267 6.63646 43.916 6.67113 43.916C6.70579 43.916 6.73246 43.9307 6.75113 43.96L6.92313 44.244C6.93379 44.2627 6.93913 44.2827 6.93913 44.304C6.93913 44.3253 6.93113 44.3453 6.91513 44.364C6.90179 44.38 6.88046 44.388 6.85113 44.388C6.82446 44.388 6.80046 44.3733 6.77913 44.344L6.72713 44.284H6.16313V45.792ZM10.8597 43.448H11.2957C11.3223 43.448 11.345 43.4587 11.3637 43.48C11.3823 43.5013 11.3917 43.528 11.3917 43.56C11.3917 43.5893 11.3823 43.6133 11.3637 43.632C11.345 43.6507 11.3223 43.66 11.2957 43.66H11.2037L11.9277 45.732L12.5357 43.984C12.5783 43.856 12.5997 43.7827 12.5997 43.764C12.5997 43.6973 12.5797 43.6587 12.5397 43.648C12.4917 43.704 12.4343 43.732 12.3677 43.732C12.3037 43.732 12.2543 43.7173 12.2197 43.688C12.185 43.656 12.1677 43.6227 12.1677 43.588C12.1677 43.4467 12.2583 43.376 12.4397 43.376C12.5357 43.376 12.6183 43.412 12.6877 43.484C12.757 43.5533 12.7917 43.6307 12.7917 43.716C12.7917 43.7987 12.7663 43.9067 12.7157 44.04L12.0357 45.952C12.0117 46.016 11.9677 46.048 11.9037 46.048C11.8397 46.048 11.797 46.0173 11.7757 45.956L10.9677 43.66H10.8597C10.833 43.66 10.8103 43.6507 10.7917 43.632C10.7757 43.6133 10.7677 43.5893 10.7677 43.56C10.7677 43.528 10.7757 43.5013 10.7917 43.48C10.8103 43.4587 10.833 43.448 10.8597 43.448ZM21.2331 45.792H21.3531C21.4198 45.792 21.4531 45.8267 21.4531 45.896C21.4531 45.9653 21.4198 46 21.3531 46H20.9091C20.8451 46 20.8131 45.9653 20.8131 45.896C20.8131 45.8267 20.8451 45.792 20.9091 45.792H21.0051V43.66H20.9091C20.8451 43.66 20.8131 43.6253 20.8131 43.556C20.8131 43.484 20.8451 43.448 20.9091 43.448H22.1491C22.2185 43.448 22.2665 43.4653 22.2931 43.5L22.5331 43.78C22.5518 43.804 22.5611 43.8267 22.5611 43.848C22.5611 43.896 22.5358 43.92 22.4851 43.92C22.4531 43.92 22.4265 43.9093 22.4051 43.888L22.1171 43.64H21.2331V44.092H21.9651C21.9465 44.0627 21.9371 44.036 21.9371 44.012C21.9371 43.988 21.9465 43.9667 21.9651 43.948C21.9865 43.9267 22.0145 43.916 22.0491 43.916C22.0838 43.916 22.1105 43.9307 22.1291 43.96L22.3051 44.244C22.3185 44.2653 22.3251 44.2853 22.3251 44.304C22.3251 44.3627 22.2971 44.392 22.2411 44.392C22.2065 44.392 22.1771 44.376 22.1531 44.344L22.1051 44.284H21.2331V45.792ZM27.7607 45.792C27.822 45.792 27.8527 45.8267 27.8527 45.896C27.8527 45.9653 27.822 46 27.7607 46H27.3207C27.2567 46 27.2247 45.9653 27.2247 45.896C27.2247 45.8267 27.2567 45.792 27.3207 45.792H27.4127L27.2967 45.428H26.2287L26.1167 45.792H26.2127C26.2767 45.792 26.3087 45.8267 26.3087 45.896C26.3087 45.9653 26.2767 46 26.2127 46H25.8087C25.7447 46 25.7127 45.9653 25.7127 45.896C25.7127 45.8267 25.7447 45.792 25.8087 45.792H25.9087L26.5727 43.66H26.4127C26.3513 43.66 26.3207 43.6253 26.3207 43.556C26.3207 43.484 26.3513 43.448 26.4127 43.448H26.8247C26.8833 43.448 26.9193 43.4667 26.9327 43.504L27.6607 45.792H27.7607ZM26.2807 45.236H27.2487L26.7607 43.676L26.2807 45.236ZM32.8127 45.416C32.8207 45.3893 32.838 45.3667 32.8647 45.348C32.8913 45.3267 32.918 45.316 32.9447 45.316C32.974 45.316 32.9993 45.3293 33.0207 45.356C33.0447 45.38 33.0567 45.4067 33.0567 45.436C33.0567 45.5667 32.974 45.7 32.8087 45.836C32.6433 45.972 32.4513 46.04 32.2327 46.04C31.9287 46.04 31.6753 45.928 31.4727 45.704C31.2727 45.4773 31.1727 45.1547 31.1727 44.736C31.1727 44.3173 31.274 43.992 31.4767 43.76C31.682 43.5253 31.922 43.408 32.1967 43.408C32.3407 43.408 32.466 43.4373 32.5727 43.496C32.682 43.5547 32.7367 43.6427 32.7367 43.76C32.7367 43.8027 32.7233 43.84 32.6967 43.872C32.6727 43.904 32.6327 43.92 32.5767 43.92C32.5207 43.92 32.4673 43.896 32.4167 43.848C32.3687 43.8 32.3447 43.7493 32.3447 43.696C32.3447 43.6853 32.3513 43.6627 32.3647 43.628C32.322 43.6093 32.2607 43.6 32.1807 43.6C31.9753 43.6 31.7953 43.7053 31.6407 43.916C31.486 44.1267 31.4087 44.388 31.4087 44.7C31.4087 44.8787 31.4393 45.0533 31.5007 45.224C31.562 45.3947 31.6553 45.54 31.7807 45.66C31.9087 45.78 32.0473 45.84 32.1967 45.84C32.346 45.84 32.4767 45.8 32.5887 45.72C32.7007 45.6373 32.7753 45.536 32.8127 45.416ZM36.7575 43.276C36.7895 43.276 36.8162 43.2867 36.8375 43.308C36.8588 43.3267 36.8695 43.3467 36.8695 43.368C36.8695 43.3893 36.8602 43.416 36.8415 43.448H38.1255L38.1375 43.412C38.1615 43.3373 38.2015 43.3 38.2575 43.3C38.2868 43.3 38.3122 43.3107 38.3335 43.332C38.3575 43.3507 38.3695 43.3733 38.3695 43.4C38.3695 43.4267 38.3628 43.4533 38.3495 43.48L38.2015 43.756C38.1775 43.8013 38.1522 43.824 38.1255 43.824C38.0695 43.824 38.0415 43.7987 38.0415 43.748C38.0415 43.732 38.0442 43.7187 38.0495 43.708L38.0695 43.64H37.5255V45.792H37.6295C37.6935 45.792 37.7255 45.8267 37.7255 45.896C37.7255 45.9653 37.6935 46 37.6295 46H37.1975C37.1335 46 37.1015 45.9653 37.1015 45.896C37.1015 45.8267 37.1335 45.792 37.1975 45.792H37.2975V43.64H36.7575L36.6935 43.744C36.6722 43.776 36.6482 43.792 36.6215 43.792C36.5948 43.792 36.5735 43.7853 36.5575 43.772C36.5442 43.756 36.5375 43.7387 36.5375 43.72C36.5375 43.6987 36.5415 43.6787 36.5495 43.66L36.6455 43.376C36.6668 43.3093 36.7042 43.276 36.7575 43.276ZM43.6756 44.724C43.6756 45.1347 43.5756 45.4573 43.3756 45.692C43.1756 45.924 42.9276 46.04 42.6316 46.04C42.3383 46.04 42.0916 45.9213 41.8916 45.684C41.6943 45.4467 41.5956 45.1227 41.5956 44.712C41.5956 44.3013 41.6956 43.9813 41.8956 43.752C42.0956 43.5227 42.3423 43.408 42.6356 43.408C42.9316 43.408 43.1783 43.524 43.3756 43.756C43.5756 43.988 43.6756 44.3107 43.6756 44.724ZM43.3476 44.208C43.289 44.0373 43.197 43.8933 43.0716 43.776C42.9463 43.6587 42.7996 43.6 42.6316 43.6C42.4663 43.6 42.321 43.6547 42.1956 43.764C42.0703 43.8733 41.977 44.0107 41.9156 44.176C41.857 44.3387 41.8276 44.512 41.8276 44.696C41.8276 44.9787 41.9023 45.2413 42.0516 45.484C42.201 45.7267 42.397 45.848 42.6396 45.848C42.8823 45.848 43.0756 45.7347 43.2196 45.508C43.3663 45.2813 43.4396 45.024 43.4396 44.736C43.4396 44.552 43.409 44.376 43.3476 44.208ZM48.7428 45.876C48.7428 45.8093 48.7642 45.7493 48.8068 45.696C48.8495 45.6427 48.8935 45.616 48.9388 45.616C49.0295 45.616 49.0748 45.6627 49.0748 45.756C49.0748 45.8307 49.0428 45.8973 48.9788 45.956C48.9175 46.012 48.8402 46.04 48.7468 46.04C48.5522 46.04 48.3908 45.9173 48.2628 45.672C48.2095 45.568 48.1628 45.4933 48.1228 45.448C48.0535 45.3733 47.9642 45.336 47.8548 45.336C47.7482 45.336 47.6948 45.3453 47.6948 45.364V45.792H47.8028C47.8668 45.792 47.8988 45.8267 47.8988 45.896C47.8988 45.9653 47.8668 46 47.8028 46H47.3708C47.3068 46 47.2748 45.9653 47.2748 45.896C47.2748 45.8267 47.3068 45.792 47.3708 45.792H47.4668V43.66H47.3708C47.3068 43.66 47.2748 43.6253 47.2748 43.556C47.2748 43.484 47.3068 43.448 47.3708 43.448H47.7828C48.1482 43.448 48.4442 43.528 48.6708 43.688C48.8975 43.848 49.0108 44.0747 49.0108 44.368C49.0108 44.616 48.9348 44.828 48.7828 45.004C48.6335 45.1773 48.4388 45.2733 48.1988 45.292C48.3562 45.3373 48.4628 45.44 48.5188 45.6C48.5535 45.6987 48.5842 45.768 48.6108 45.808C48.6402 45.8453 48.6842 45.868 48.7428 45.876ZM48.0268 45.14C48.2508 45.14 48.4348 45.0707 48.5788 44.932C48.7228 44.7907 48.7948 44.6027 48.7948 44.368C48.7948 44.1333 48.7042 43.952 48.5228 43.824C48.3415 43.6933 48.1228 43.628 47.8668 43.628C47.7522 43.628 47.6948 43.6453 47.6948 43.68V45.096C47.6948 45.1253 47.8055 45.14 48.0268 45.14ZM53.4604 45.788H53.5564C53.6204 45.788 53.6524 45.824 53.6524 45.896C53.6524 45.9653 53.6204 46 53.5564 46H53.1324C53.0684 46 53.0364 45.9653 53.0364 45.896C53.0364 45.824 53.0684 45.788 53.1324 45.788H53.2284V45.072L52.4644 43.66H52.3404C52.2844 43.66 52.2564 43.624 52.2564 43.552C52.2564 43.5253 52.2644 43.5013 52.2804 43.48C52.2964 43.4587 52.3164 43.448 52.3404 43.448H52.8364C52.8604 43.448 52.8804 43.4587 52.8964 43.48C52.9124 43.5013 52.9204 43.5253 52.9204 43.552C52.9204 43.624 52.8924 43.66 52.8364 43.66H52.7244L53.3604 44.84L53.9844 43.66H53.8884C53.8271 43.66 53.7964 43.624 53.7964 43.552C53.7964 43.5253 53.8044 43.5013 53.8204 43.48C53.8364 43.4587 53.8591 43.448 53.8884 43.448H54.3124C54.3391 43.448 54.3604 43.4587 54.3764 43.48C54.3951 43.5013 54.4044 43.5267 54.4044 43.556C54.4044 43.5853 54.3951 43.6107 54.3764 43.632C54.3604 43.6507 54.3391 43.66 54.3124 43.66H54.2084L53.4604 45.068V45.788Z" fill="#041676"/>
<path d="M0.52 43.68V45.772C0.52 45.804 0.585333 45.82 0.716 45.82C0.849333 45.82 0.986667 45.8 1.128 45.76C1.272 45.7173 1.404 45.656 1.524 45.576C1.64667 45.4933 1.744 45.3813 1.816 45.24C1.888 45.096 1.924 44.9173 1.924 44.704C1.924 44.4907 1.864 44.2973 1.744 44.124C1.51733 43.796 1.168 43.632 0.696 43.632C0.578667 43.632 0.52 43.648 0.52 43.68ZM0.292 43.66H0.2C0.133333 43.66 0.1 43.6253 0.1 43.556C0.1 43.484 0.132 43.448 0.196 43.448H0.672C1.10133 43.4507 1.45333 43.5653 1.728 43.792C2.00533 44.016 2.144 44.332 2.144 44.74C2.144 45.148 2.00667 45.46 1.732 45.676C1.46 45.892 1.1 46 0.652 46H0.196C0.132 46 0.1 45.9653 0.1 45.896C0.1 45.8267 0.132 45.792 0.196 45.792H0.292V43.66ZM6.16313 45.792H7.05113L7.46313 45.392C7.48179 45.3733 7.50179 45.364 7.52313 45.364C7.57913 45.364 7.60713 45.388 7.60713 45.436C7.60713 45.452 7.59913 45.4733 7.58313 45.5L7.29513 45.948C7.27379 45.9827 7.23779 46 7.18713 46H5.83913C5.77513 46 5.74313 45.9653 5.74313 45.896C5.74313 45.8267 5.77513 45.792 5.83913 45.792H5.93513V43.66H5.83913C5.77513 43.66 5.74313 43.6253 5.74313 43.556C5.74313 43.484 5.77513 43.448 5.83913 43.448H6.78713C6.83779 43.448 6.87646 43.4613 6.90313 43.488L7.15513 43.78C7.17379 43.8013 7.18313 43.8227 7.18313 43.844C7.18313 43.8653 7.17513 43.884 7.15913 43.9C7.14579 43.9133 7.12579 43.92 7.09913 43.92C7.07246 43.92 7.04846 43.9093 7.02713 43.888L6.74313 43.64H6.16313V44.092H6.58313C6.56713 44.068 6.55913 44.0427 6.55913 44.016C6.55913 43.9893 6.56846 43.9667 6.58713 43.948C6.60846 43.9267 6.63646 43.916 6.67113 43.916C6.70579 43.916 6.73246 43.9307 6.75113 43.96L6.92313 44.244C6.93379 44.2627 6.93913 44.2827 6.93913 44.304C6.93913 44.3253 6.93113 44.3453 6.91513 44.364C6.90179 44.38 6.88046 44.388 6.85113 44.388C6.82446 44.388 6.80046 44.3733 6.77913 44.344L6.72713 44.284H6.16313V45.792ZM10.8597 43.448H11.2957C11.3223 43.448 11.345 43.4587 11.3637 43.48C11.3823 43.5013 11.3917 43.528 11.3917 43.56C11.3917 43.5893 11.3823 43.6133 11.3637 43.632C11.345 43.6507 11.3223 43.66 11.2957 43.66H11.2037L11.9277 45.732L12.5357 43.984C12.5783 43.856 12.5997 43.7827 12.5997 43.764C12.5997 43.6973 12.5797 43.6587 12.5397 43.648C12.4917 43.704 12.4343 43.732 12.3677 43.732C12.3037 43.732 12.2543 43.7173 12.2197 43.688C12.185 43.656 12.1677 43.6227 12.1677 43.588C12.1677 43.4467 12.2583 43.376 12.4397 43.376C12.5357 43.376 12.6183 43.412 12.6877 43.484C12.757 43.5533 12.7917 43.6307 12.7917 43.716C12.7917 43.7987 12.7663 43.9067 12.7157 44.04L12.0357 45.952C12.0117 46.016 11.9677 46.048 11.9037 46.048C11.8397 46.048 11.797 46.0173 11.7757 45.956L10.9677 43.66H10.8597C10.833 43.66 10.8103 43.6507 10.7917 43.632C10.7757 43.6133 10.7677 43.5893 10.7677 43.56C10.7677 43.528 10.7757 43.5013 10.7917 43.48C10.8103 43.4587 10.833 43.448 10.8597 43.448ZM21.2331 45.792H21.3531C21.4198 45.792 21.4531 45.8267 21.4531 45.896C21.4531 45.9653 21.4198 46 21.3531 46H20.9091C20.8451 46 20.8131 45.9653 20.8131 45.896C20.8131 45.8267 20.8451 45.792 20.9091 45.792H21.0051V43.66H20.9091C20.8451 43.66 20.8131 43.6253 20.8131 43.556C20.8131 43.484 20.8451 43.448 20.9091 43.448H22.1491C22.2185 43.448 22.2665 43.4653 22.2931 43.5L22.5331 43.78C22.5518 43.804 22.5611 43.8267 22.5611 43.848C22.5611 43.896 22.5358 43.92 22.4851 43.92C22.4531 43.92 22.4265 43.9093 22.4051 43.888L22.1171 43.64H21.2331V44.092H21.9651C21.9465 44.0627 21.9371 44.036 21.9371 44.012C21.9371 43.988 21.9465 43.9667 21.9651 43.948C21.9865 43.9267 22.0145 43.916 22.0491 43.916C22.0838 43.916 22.1105 43.9307 22.1291 43.96L22.3051 44.244C22.3185 44.2653 22.3251 44.2853 22.3251 44.304C22.3251 44.3627 22.2971 44.392 22.2411 44.392C22.2065 44.392 22.1771 44.376 22.1531 44.344L22.1051 44.284H21.2331V45.792ZM27.7607 45.792C27.822 45.792 27.8527 45.8267 27.8527 45.896C27.8527 45.9653 27.822 46 27.7607 46H27.3207C27.2567 46 27.2247 45.9653 27.2247 45.896C27.2247 45.8267 27.2567 45.792 27.3207 45.792H27.4127L27.2967 45.428H26.2287L26.1167 45.792H26.2127C26.2767 45.792 26.3087 45.8267 26.3087 45.896C26.3087 45.9653 26.2767 46 26.2127 46H25.8087C25.7447 46 25.7127 45.9653 25.7127 45.896C25.7127 45.8267 25.7447 45.792 25.8087 45.792H25.9087L26.5727 43.66H26.4127C26.3513 43.66 26.3207 43.6253 26.3207 43.556C26.3207 43.484 26.3513 43.448 26.4127 43.448H26.8247C26.8833 43.448 26.9193 43.4667 26.9327 43.504L27.6607 45.792H27.7607ZM26.2807 45.236H27.2487L26.7607 43.676L26.2807 45.236ZM32.8127 45.416C32.8207 45.3893 32.838 45.3667 32.8647 45.348C32.8913 45.3267 32.918 45.316 32.9447 45.316C32.974 45.316 32.9993 45.3293 33.0207 45.356C33.0447 45.38 33.0567 45.4067 33.0567 45.436C33.0567 45.5667 32.974 45.7 32.8087 45.836C32.6433 45.972 32.4513 46.04 32.2327 46.04C31.9287 46.04 31.6753 45.928 31.4727 45.704C31.2727 45.4773 31.1727 45.1547 31.1727 44.736C31.1727 44.3173 31.274 43.992 31.4767 43.76C31.682 43.5253 31.922 43.408 32.1967 43.408C32.3407 43.408 32.466 43.4373 32.5727 43.496C32.682 43.5547 32.7367 43.6427 32.7367 43.76C32.7367 43.8027 32.7233 43.84 32.6967 43.872C32.6727 43.904 32.6327 43.92 32.5767 43.92C32.5207 43.92 32.4673 43.896 32.4167 43.848C32.3687 43.8 32.3447 43.7493 32.3447 43.696C32.3447 43.6853 32.3513 43.6627 32.3647 43.628C32.322 43.6093 32.2607 43.6 32.1807 43.6C31.9753 43.6 31.7953 43.7053 31.6407 43.916C31.486 44.1267 31.4087 44.388 31.4087 44.7C31.4087 44.8787 31.4393 45.0533 31.5007 45.224C31.562 45.3947 31.6553 45.54 31.7807 45.66C31.9087 45.78 32.0473 45.84 32.1967 45.84C32.346 45.84 32.4767 45.8 32.5887 45.72C32.7007 45.6373 32.7753 45.536 32.8127 45.416ZM36.7575 43.276C36.7895 43.276 36.8162 43.2867 36.8375 43.308C36.8588 43.3267 36.8695 43.3467 36.8695 43.368C36.8695 43.3893 36.8602 43.416 36.8415 43.448H38.1255L38.1375 43.412C38.1615 43.3373 38.2015 43.3 38.2575 43.3C38.2868 43.3 38.3122 43.3107 38.3335 43.332C38.3575 43.3507 38.3695 43.3733 38.3695 43.4C38.3695 43.4267 38.3628 43.4533 38.3495 43.48L38.2015 43.756C38.1775 43.8013 38.1522 43.824 38.1255 43.824C38.0695 43.824 38.0415 43.7987 38.0415 43.748C38.0415 43.732 38.0442 43.7187 38.0495 43.708L38.0695 43.64H37.5255V45.792H37.6295C37.6935 45.792 37.7255 45.8267 37.7255 45.896C37.7255 45.9653 37.6935 46 37.6295 46H37.1975C37.1335 46 37.1015 45.9653 37.1015 45.896C37.1015 45.8267 37.1335 45.792 37.1975 45.792H37.2975V43.64H36.7575L36.6935 43.744C36.6722 43.776 36.6482 43.792 36.6215 43.792C36.5948 43.792 36.5735 43.7853 36.5575 43.772C36.5442 43.756 36.5375 43.7387 36.5375 43.72C36.5375 43.6987 36.5415 43.6787 36.5495 43.66L36.6455 43.376C36.6668 43.3093 36.7042 43.276 36.7575 43.276ZM43.6756 44.724C43.6756 45.1347 43.5756 45.4573 43.3756 45.692C43.1756 45.924 42.9276 46.04 42.6316 46.04C42.3383 46.04 42.0916 45.9213 41.8916 45.684C41.6943 45.4467 41.5956 45.1227 41.5956 44.712C41.5956 44.3013 41.6956 43.9813 41.8956 43.752C42.0956 43.5227 42.3423 43.408 42.6356 43.408C42.9316 43.408 43.1783 43.524 43.3756 43.756C43.5756 43.988 43.6756 44.3107 43.6756 44.724ZM43.3476 44.208C43.289 44.0373 43.197 43.8933 43.0716 43.776C42.9463 43.6587 42.7996 43.6 42.6316 43.6C42.4663 43.6 42.321 43.6547 42.1956 43.764C42.0703 43.8733 41.977 44.0107 41.9156 44.176C41.857 44.3387 41.8276 44.512 41.8276 44.696C41.8276 44.9787 41.9023 45.2413 42.0516 45.484C42.201 45.7267 42.397 45.848 42.6396 45.848C42.8823 45.848 43.0756 45.7347 43.2196 45.508C43.3663 45.2813 43.4396 45.024 43.4396 44.736C43.4396 44.552 43.409 44.376 43.3476 44.208ZM48.7428 45.876C48.7428 45.8093 48.7642 45.7493 48.8068 45.696C48.8495 45.6427 48.8935 45.616 48.9388 45.616C49.0295 45.616 49.0748 45.6627 49.0748 45.756C49.0748 45.8307 49.0428 45.8973 48.9788 45.956C48.9175 46.012 48.8402 46.04 48.7468 46.04C48.5522 46.04 48.3908 45.9173 48.2628 45.672C48.2095 45.568 48.1628 45.4933 48.1228 45.448C48.0535 45.3733 47.9642 45.336 47.8548 45.336C47.7482 45.336 47.6948 45.3453 47.6948 45.364V45.792H47.8028C47.8668 45.792 47.8988 45.8267 47.8988 45.896C47.8988 45.9653 47.8668 46 47.8028 46H47.3708C47.3068 46 47.2748 45.9653 47.2748 45.896C47.2748 45.8267 47.3068 45.792 47.3708 45.792H47.4668V43.66H47.3708C47.3068 43.66 47.2748 43.6253 47.2748 43.556C47.2748 43.484 47.3068 43.448 47.3708 43.448H47.7828C48.1482 43.448 48.4442 43.528 48.6708 43.688C48.8975 43.848 49.0108 44.0747 49.0108 44.368C49.0108 44.616 48.9348 44.828 48.7828 45.004C48.6335 45.1773 48.4388 45.2733 48.1988 45.292C48.3562 45.3373 48.4628 45.44 48.5188 45.6C48.5535 45.6987 48.5842 45.768 48.6108 45.808C48.6402 45.8453 48.6842 45.868 48.7428 45.876ZM48.0268 45.14C48.2508 45.14 48.4348 45.0707 48.5788 44.932C48.7228 44.7907 48.7948 44.6027 48.7948 44.368C48.7948 44.1333 48.7042 43.952 48.5228 43.824C48.3415 43.6933 48.1228 43.628 47.8668 43.628C47.7522 43.628 47.6948 43.6453 47.6948 43.68V45.096C47.6948 45.1253 47.8055 45.14 48.0268 45.14ZM53.4604 45.788H53.5564C53.6204 45.788 53.6524 45.824 53.6524 45.896C53.6524 45.9653 53.6204 46 53.5564 46H53.1324C53.0684 46 53.0364 45.9653 53.0364 45.896C53.0364 45.824 53.0684 45.788 53.1324 45.788H53.2284V45.072L52.4644 43.66H52.3404C52.2844 43.66 52.2564 43.624 52.2564 43.552C52.2564 43.5253 52.2644 43.5013 52.2804 43.48C52.2964 43.4587 52.3164 43.448 52.3404 43.448H52.8364C52.8604 43.448 52.8804 43.4587 52.8964 43.48C52.9124 43.5013 52.9204 43.5253 52.9204 43.552C52.9204 43.624 52.8924 43.66 52.8364 43.66H52.7244L53.3604 44.84L53.9844 43.66H53.8884C53.8271 43.66 53.7964 43.624 53.7964 43.552C53.7964 43.5253 53.8044 43.5013 53.8204 43.48C53.8364 43.4587 53.8591 43.448 53.8884 43.448H54.3124C54.3391 43.448 54.3604 43.4587 54.3764 43.48C54.3951 43.5013 54.4044 43.5267 54.4044 43.556C54.4044 43.5853 54.3951 43.6107 54.3764 43.632C54.3604 43.6507 54.3391 43.66 54.3124 43.66H54.2084L53.4604 45.068V45.788Z" fill="#041676"/>
<rect x="28" y="49" width="5" height="3" fill="url(#paint0_linear_8_544)"/>
<path d="M28.5 42.5H32.5V45.5H28.5V42.5Z" fill="url(#paint1_linear_8_544)"/>
<path d="M14.156 50.896V49.83H14.098C14.066 49.83 14.05 49.8127 14.05 49.778C14.05 49.742 14.066 49.724 14.098 49.724H14.328C14.3613 49.724 14.378 49.742 14.378 49.778C14.378 49.8127 14.3613 49.83 14.328 49.83H14.27V50.896H14.328C14.36 50.896 14.376 50.9133 14.376 50.948C14.376 50.9827 14.36 51 14.328 51H14.098C14.066 51 14.05 50.9827 14.05 50.948C14.05 50.9133 14.066 50.896 14.098 50.896H14.156ZM15.5877 49.638C15.6037 49.638 15.6171 49.6433 15.6277 49.654C15.6384 49.6633 15.6437 49.6733 15.6437 49.684C15.6437 49.6947 15.6391 49.708 15.6297 49.724H16.2717L16.2777 49.706C16.2897 49.6687 16.3097 49.65 16.3377 49.65C16.3524 49.65 16.3651 49.6553 16.3757 49.666C16.3877 49.6753 16.3937 49.6867 16.3937 49.7C16.3937 49.7133 16.3904 49.7267 16.3837 49.74L16.3097 49.878C16.2977 49.9007 16.2851 49.912 16.2717 49.912C16.2437 49.912 16.2297 49.8993 16.2297 49.874C16.2297 49.866 16.2311 49.8593 16.2337 49.854L16.2437 49.82H15.9717V50.896H16.0237C16.0557 50.896 16.0717 50.9133 16.0717 50.948C16.0717 50.9827 16.0557 51 16.0237 51H15.8077C15.7757 51 15.7597 50.9827 15.7597 50.948C15.7597 50.9133 15.7757 50.896 15.8077 50.896H15.8577V49.82H15.5877L15.5557 49.872C15.5451 49.888 15.5331 49.896 15.5197 49.896C15.5064 49.896 15.4957 49.8927 15.4877 49.886C15.4811 49.878 15.4777 49.8693 15.4777 49.86C15.4777 49.8493 15.4797 49.8393 15.4837 49.83L15.5317 49.688C15.5424 49.6547 15.5611 49.638 15.5877 49.638ZM19.0033 50.714C19.0033 50.6687 19.0153 50.632 19.0393 50.604C19.0633 50.5747 19.0873 50.56 19.1113 50.56C19.1366 50.56 19.1559 50.5687 19.1693 50.586C19.1839 50.6033 19.1913 50.624 19.1913 50.648C19.1913 50.6973 19.1733 50.7367 19.1373 50.766C19.1519 50.8233 19.1819 50.866 19.2273 50.894C19.2739 50.9207 19.3253 50.934 19.3813 50.934C19.4639 50.934 19.5293 50.906 19.5773 50.85C19.6266 50.794 19.6513 50.7313 19.6513 50.662C19.6513 50.5913 19.6246 50.5307 19.5713 50.48C19.5313 50.444 19.4799 50.4053 19.4173 50.364L19.3153 50.298C19.2419 50.2513 19.1859 50.2033 19.1473 50.154C19.1086 50.1033 19.0893 50.0413 19.0893 49.968C19.0893 49.8933 19.1173 49.8307 19.1733 49.78C19.2293 49.728 19.2953 49.702 19.3713 49.702C19.4486 49.702 19.5133 49.7193 19.5653 49.754C19.6173 49.7887 19.6433 49.8307 19.6433 49.88C19.6433 49.904 19.6359 49.9233 19.6213 49.938C19.6079 49.9513 19.5879 49.958 19.5613 49.958C19.5346 49.958 19.5086 49.9467 19.4833 49.924C19.4593 49.9013 19.4473 49.8807 19.4473 49.862C19.4473 49.8433 19.4493 49.828 19.4533 49.816C19.4413 49.7933 19.4133 49.782 19.3693 49.782C19.3253 49.782 19.2859 49.7993 19.2513 49.834C19.2179 49.8687 19.2013 49.9073 19.2013 49.95C19.2013 50.0193 19.2639 50.0953 19.3893 50.178L19.4913 50.246C19.5353 50.2767 19.5679 50.3007 19.5893 50.318C19.6119 50.334 19.6399 50.3593 19.6733 50.394C19.7373 50.4607 19.7693 50.5487 19.7693 50.658C19.7693 50.7673 19.7313 50.8553 19.6553 50.922C19.5793 50.9887 19.4893 51.022 19.3853 51.022C19.2813 51.022 19.1913 50.9907 19.1153 50.928C19.0406 50.864 19.0033 50.7927 19.0033 50.714ZM21.0899 50.896H21.5339L21.7399 50.696C21.7493 50.6867 21.7593 50.682 21.7699 50.682C21.7979 50.682 21.8119 50.694 21.8119 50.718C21.8119 50.726 21.8079 50.7367 21.7999 50.75L21.6559 50.974C21.6453 50.9913 21.6273 51 21.6019 51H20.9279C20.8959 51 20.8799 50.9827 20.8799 50.948C20.8799 50.9133 20.8959 50.896 20.9279 50.896H20.9759V49.83H20.9279C20.8959 49.83 20.8799 49.8127 20.8799 49.778C20.8799 49.742 20.8959 49.724 20.9279 49.724H21.4019C21.4273 49.724 21.4466 49.7307 21.4599 49.744L21.5859 49.89C21.5953 49.9007 21.5999 49.9113 21.5999 49.922C21.5999 49.9327 21.5959 49.942 21.5879 49.95C21.5813 49.9567 21.5713 49.96 21.5579 49.96C21.5446 49.96 21.5326 49.9547 21.5219 49.944L21.3799 49.82H21.0899V50.046H21.2999C21.2919 50.034 21.2879 50.0213 21.2879 50.008C21.2879 49.9947 21.2926 49.9833 21.3019 49.974C21.3126 49.9633 21.3266 49.958 21.3439 49.958C21.3613 49.958 21.3746 49.9653 21.3839 49.98L21.4699 50.122C21.4753 50.1313 21.4779 50.1413 21.4779 50.152C21.4779 50.1627 21.4739 50.1727 21.4659 50.182C21.4593 50.19 21.4486 50.194 21.4339 50.194C21.4206 50.194 21.4086 50.1867 21.3979 50.172L21.3719 50.142H21.0899V50.896ZM23.6461 50.938C23.6461 50.9047 23.6568 50.8747 23.6781 50.848C23.6994 50.8213 23.7214 50.808 23.7441 50.808C23.7894 50.808 23.8121 50.8313 23.8121 50.878C23.8121 50.9153 23.7961 50.9487 23.7641 50.978C23.7334 51.006 23.6948 51.02 23.6481 51.02C23.5508 51.02 23.4701 50.9587 23.4061 50.836C23.3794 50.784 23.3561 50.7467 23.3361 50.724C23.3014 50.6867 23.2568 50.668 23.2021 50.668C23.1488 50.668 23.1221 50.6727 23.1221 50.682V50.896H23.1761C23.2081 50.896 23.2241 50.9133 23.2241 50.948C23.2241 50.9827 23.2081 51 23.1761 51H22.9601C22.9281 51 22.9121 50.9827 22.9121 50.948C22.9121 50.9133 22.9281 50.896 22.9601 50.896H23.0081V49.83H22.9601C22.9281 49.83 22.9121 49.8127 22.9121 49.778C22.9121 49.742 22.9281 49.724 22.9601 49.724H23.1661C23.3488 49.724 23.4968 49.764 23.6101 49.844C23.7234 49.924 23.7801 50.0373 23.7801 50.184C23.7801 50.308 23.7421 50.414 23.6661 50.502C23.5914 50.5887 23.4941 50.6367 23.3741 50.646C23.4528 50.6687 23.5061 50.72 23.5341 50.8C23.5514 50.8493 23.5668 50.884 23.5801 50.904C23.5948 50.9227 23.6168 50.934 23.6461 50.938ZM23.2881 50.57C23.4001 50.57 23.4921 50.5353 23.5641 50.466C23.6361 50.3953 23.6721 50.3013 23.6721 50.184C23.6721 50.0667 23.6268 49.976 23.5361 49.912C23.4454 49.8467 23.3361 49.814 23.2081 49.814C23.1508 49.814 23.1221 49.8227 23.1221 49.84V50.548C23.1221 50.5627 23.1774 50.57 23.2881 50.57ZM24.8138 49.724H25.0318C25.0451 49.724 25.0565 49.7293 25.0658 49.74C25.0751 49.7507 25.0798 49.764 25.0798 49.78C25.0798 49.7947 25.0751 49.8067 25.0658 49.816C25.0565 49.8253 25.0451 49.83 25.0318 49.83H24.9858L25.3478 50.866L25.6518 49.992C25.6731 49.928 25.6838 49.8913 25.6838 49.882C25.6838 49.8487 25.6738 49.8293 25.6538 49.824C25.6298 49.852 25.6011 49.866 25.5678 49.866C25.5358 49.866 25.5111 49.8587 25.4938 49.844C25.4765 49.828 25.4678 49.8113 25.4678 49.794C25.4678 49.7233 25.5131 49.688 25.6038 49.688C25.6518 49.688 25.6931 49.706 25.7278 49.742C25.7625 49.7767 25.7798 49.8153 25.7798 49.858C25.7798 49.8993 25.7671 49.9533 25.7418 50.02L25.4018 50.976C25.3898 51.008 25.3678 51.024 25.3358 51.024C25.3038 51.024 25.2825 51.0087 25.2718 50.978L24.8678 49.83H24.8138C24.8005 49.83 24.7891 49.8253 24.7798 49.816C24.7718 49.8067 24.7678 49.7947 24.7678 49.78C24.7678 49.764 24.7718 49.7507 24.7798 49.74C24.7891 49.7293 24.8005 49.724 24.8138 49.724ZM26.9965 50.896V49.83H26.9385C26.9065 49.83 26.8905 49.8127 26.8905 49.778C26.8905 49.742 26.9065 49.724 26.9385 49.724H27.1685C27.2019 49.724 27.2185 49.742 27.2185 49.778C27.2185 49.8127 27.2019 49.83 27.1685 49.83H27.1105V50.896H27.1685C27.2005 50.896 27.2165 50.9133 27.2165 50.948C27.2165 50.9827 27.2005 51 27.1685 51H26.9385C26.9065 51 26.8905 50.9827 26.8905 50.948C26.8905 50.9133 26.9065 50.896 26.9385 50.896H26.9965ZM29.1583 50.708C29.1623 50.6947 29.1709 50.6833 29.1843 50.674C29.1976 50.6633 29.2109 50.658 29.2243 50.658C29.2389 50.658 29.2516 50.6647 29.2623 50.678C29.2743 50.69 29.2803 50.7033 29.2803 50.718C29.2803 50.7833 29.2389 50.85 29.1563 50.918C29.0736 50.986 28.9776 51.02 28.8683 51.02C28.7163 51.02 28.5896 50.964 28.4883 50.852C28.3883 50.7387 28.3383 50.5773 28.3383 50.368C28.3383 50.1587 28.3889 49.996 28.4903 49.88C28.5929 49.7627 28.7129 49.704 28.8503 49.704C28.9223 49.704 28.9849 49.7187 29.0383 49.748C29.0929 49.7773 29.1203 49.8213 29.1203 49.88C29.1203 49.9013 29.1136 49.92 29.1003 49.936C29.0883 49.952 29.0683 49.96 29.0403 49.96C29.0123 49.96 28.9856 49.948 28.9603 49.924C28.9363 49.9 28.9243 49.8747 28.9243 49.848C28.9243 49.8427 28.9276 49.8313 28.9343 49.814C28.9129 49.8047 28.8823 49.8 28.8423 49.8C28.7396 49.8 28.6496 49.8527 28.5723 49.958C28.4949 50.0633 28.4563 50.194 28.4563 50.35C28.4563 50.4393 28.4716 50.5267 28.5023 50.612C28.5329 50.6973 28.5796 50.77 28.6423 50.83C28.7063 50.89 28.7756 50.92 28.8503 50.92C28.9249 50.92 28.9903 50.9 29.0463 50.86C29.1023 50.8187 29.1396 50.768 29.1583 50.708ZM30.5907 50.896H31.0347L31.2407 50.696C31.25 50.6867 31.26 50.682 31.2707 50.682C31.2987 50.682 31.3127 50.694 31.3127 50.718C31.3127 50.726 31.3087 50.7367 31.3007 50.75L31.1567 50.974C31.146 50.9913 31.128 51 31.1027 51H30.4287C30.3967 51 30.3807 50.9827 30.3807 50.948C30.3807 50.9133 30.3967 50.896 30.4287 50.896H30.4767V49.83H30.4287C30.3967 49.83 30.3807 49.8127 30.3807 49.778C30.3807 49.742 30.3967 49.724 30.4287 49.724H30.9027C30.928 49.724 30.9474 49.7307 30.9607 49.744L31.0867 49.89C31.096 49.9007 31.1007 49.9113 31.1007 49.922C31.1007 49.9327 31.0967 49.942 31.0887 49.95C31.082 49.9567 31.072 49.96 31.0587 49.96C31.0454 49.96 31.0334 49.9547 31.0227 49.944L30.8807 49.82H30.5907V50.046H30.8007C30.7927 50.034 30.7887 50.0213 30.7887 50.008C30.7887 49.9947 30.7934 49.9833 30.8027 49.974C30.8134 49.9633 30.8274 49.958 30.8447 49.958C30.862 49.958 30.8754 49.9653 30.8847 49.98L30.9707 50.122C30.976 50.1313 30.9787 50.1413 30.9787 50.152C30.9787 50.1627 30.9747 50.1727 30.9667 50.182C30.96 50.19 30.9494 50.194 30.9347 50.194C30.9214 50.194 30.9094 50.1867 30.8987 50.172L30.8727 50.142H30.5907V50.896ZM34.3269 50.57H33.9809C33.9489 50.57 33.9329 50.5527 33.9329 50.518C33.9329 50.482 33.9489 50.464 33.9809 50.464H34.3269C34.3429 50.464 34.3549 50.4693 34.3629 50.48C34.3722 50.4893 34.3769 50.5013 34.3769 50.516C34.3769 50.552 34.3602 50.57 34.3269 50.57ZM36.2968 50.708C36.3008 50.6947 36.3095 50.6833 36.3228 50.674C36.3361 50.6633 36.3495 50.658 36.3628 50.658C36.3775 50.658 36.3901 50.6647 36.4008 50.678C36.4128 50.69 36.4188 50.7033 36.4188 50.718C36.4188 50.7833 36.3775 50.85 36.2948 50.918C36.2121 50.986 36.1161 51.02 36.0068 51.02C35.8548 51.02 35.7281 50.964 35.6268 50.852C35.5268 50.7387 35.4768 50.5773 35.4768 50.368C35.4768 50.1587 35.5275 49.996 35.6288 49.88C35.7315 49.7627 35.8515 49.704 35.9888 49.704C36.0608 49.704 36.1235 49.7187 36.1768 49.748C36.2315 49.7773 36.2588 49.8213 36.2588 49.88C36.2588 49.9013 36.2521 49.92 36.2388 49.936C36.2268 49.952 36.2068 49.96 36.1788 49.96C36.1508 49.96 36.1241 49.948 36.0988 49.924C36.0748 49.9 36.0628 49.8747 36.0628 49.848C36.0628 49.8427 36.0661 49.8313 36.0728 49.814C36.0515 49.8047 36.0208 49.8 35.9808 49.8C35.8781 49.8 35.7881 49.8527 35.7108 49.958C35.6335 50.0633 35.5948 50.194 35.5948 50.35C35.5948 50.4393 35.6101 50.5267 35.6408 50.612C35.6715 50.6973 35.7181 50.77 35.7808 50.83C35.8448 50.89 35.9141 50.92 35.9888 50.92C36.0635 50.92 36.1288 50.9 36.1848 50.86C36.2408 50.8187 36.2781 50.768 36.2968 50.708ZM38.5392 50.362C38.5392 50.5673 38.4892 50.7287 38.3892 50.846C38.2892 50.962 38.1652 51.02 38.0172 51.02C37.8706 51.02 37.7472 50.9607 37.6472 50.842C37.5486 50.7233 37.4992 50.5613 37.4992 50.356C37.4992 50.1507 37.5492 49.9907 37.6492 49.876C37.7492 49.7613 37.8726 49.704 38.0192 49.704C38.1672 49.704 38.2906 49.762 38.3892 49.878C38.4892 49.994 38.5392 50.1553 38.5392 50.362ZM38.3752 50.104C38.3459 50.0187 38.2999 49.9467 38.2372 49.888C38.1746 49.8293 38.1012 49.8 38.0172 49.8C37.9346 49.8 37.8619 49.8273 37.7992 49.882C37.7366 49.9367 37.6899 50.0053 37.6592 50.088C37.6299 50.1693 37.6152 50.256 37.6152 50.348C37.6152 50.4893 37.6526 50.6207 37.7272 50.742C37.8019 50.8633 37.8999 50.924 38.0212 50.924C38.1426 50.924 38.2392 50.8673 38.3112 50.754C38.3846 50.6407 38.4212 50.512 38.4212 50.368C38.4212 50.276 38.4059 50.188 38.3752 50.104ZM40.5688 49.724C40.6022 49.724 40.6188 49.742 40.6188 49.778C40.6188 49.8127 40.6022 49.83 40.5688 49.83H40.5148V50.954C40.5148 50.99 40.4968 51.008 40.4608 51.008C40.4288 51.008 40.4068 50.9953 40.3948 50.97L39.8588 49.944V50.896H39.9048C39.9368 50.896 39.9528 50.9133 39.9528 50.948C39.9528 50.9827 39.9368 51 39.9048 51H39.7068C39.6748 51 39.6588 50.9827 39.6588 50.948C39.6588 50.9133 39.6748 50.896 39.7068 50.896H39.7548V49.83H39.7068C39.6748 49.83 39.6588 49.8127 39.6588 49.778C39.6588 49.742 39.6748 49.724 39.7068 49.724H39.8408C39.8608 49.724 39.8762 49.7347 39.8868 49.756L40.4108 50.758V49.83H40.3588C40.3268 49.83 40.3108 49.8127 40.3108 49.778C40.3108 49.742 40.3268 49.724 40.3588 49.724H40.5688ZM41.7294 50.714C41.7294 50.6687 41.7414 50.632 41.7654 50.604C41.7894 50.5747 41.8134 50.56 41.8374 50.56C41.8627 50.56 41.882 50.5687 41.8954 50.586C41.91 50.6033 41.9174 50.624 41.9174 50.648C41.9174 50.6973 41.8994 50.7367 41.8634 50.766C41.878 50.8233 41.908 50.866 41.9534 50.894C42 50.9207 42.0514 50.934 42.1074 50.934C42.19 50.934 42.2554 50.906 42.3034 50.85C42.3527 50.794 42.3774 50.7313 42.3774 50.662C42.3774 50.5913 42.3507 50.5307 42.2974 50.48C42.2574 50.444 42.206 50.4053 42.1434 50.364L42.0414 50.298C41.968 50.2513 41.912 50.2033 41.8734 50.154C41.8347 50.1033 41.8154 50.0413 41.8154 49.968C41.8154 49.8933 41.8434 49.8307 41.8994 49.78C41.9554 49.728 42.0214 49.702 42.0974 49.702C42.1747 49.702 42.2394 49.7193 42.2914 49.754C42.3434 49.7887 42.3694 49.8307 42.3694 49.88C42.3694 49.904 42.362 49.9233 42.3474 49.938C42.334 49.9513 42.314 49.958 42.2874 49.958C42.2607 49.958 42.2347 49.9467 42.2094 49.924C42.1854 49.9013 42.1734 49.8807 42.1734 49.862C42.1734 49.8433 42.1754 49.828 42.1794 49.816C42.1674 49.7933 42.1394 49.782 42.0954 49.782C42.0514 49.782 42.012 49.7993 41.9774 49.834C41.944 49.8687 41.9274 49.9073 41.9274 49.95C41.9274 50.0193 41.99 50.0953 42.1154 50.178L42.2174 50.246C42.2614 50.2767 42.294 50.3007 42.3154 50.318C42.338 50.334 42.366 50.3593 42.3994 50.394C42.4634 50.4607 42.4954 50.5487 42.4954 50.658C42.4954 50.7673 42.4574 50.8553 42.3814 50.922C42.3054 50.9887 42.2154 51.022 42.1114 51.022C42.0074 51.022 41.9174 50.9907 41.8414 50.928C41.7667 50.864 41.7294 50.7927 41.7294 50.714ZM44.596 49.724C44.6267 49.724 44.642 49.742 44.642 49.778C44.642 49.8127 44.6267 49.83 44.596 49.83H44.552V50.566C44.552 50.698 44.512 50.8067 44.432 50.892C44.3533 50.9773 44.252 51.02 44.128 51.02C44.004 51.02 43.8993 50.98 43.814 50.9C43.7287 50.82 43.686 50.7153 43.686 50.586V49.83H43.642C43.6113 49.83 43.596 49.8127 43.596 49.778C43.596 49.742 43.6113 49.724 43.642 49.724H43.844C43.8773 49.724 43.894 49.742 43.894 49.778C43.894 49.8127 43.8773 49.83 43.844 49.83H43.802V50.554C43.802 50.666 43.832 50.7553 43.892 50.822C43.9533 50.8873 44.034 50.92 44.134 50.92C44.2353 50.92 44.3133 50.8847 44.368 50.814C44.4227 50.742 44.45 50.6547 44.45 50.552V49.83H44.406C44.3753 49.83 44.36 49.8127 44.36 49.778C44.36 49.742 44.3753 49.724 44.406 49.724H44.596ZM45.983 50.896H46.289L46.495 50.612C46.5016 50.6027 46.5103 50.598 46.521 50.598C46.533 50.598 46.5423 50.6013 46.549 50.608C46.557 50.6147 46.561 50.6227 46.561 50.632C46.561 50.64 46.5583 50.6493 46.553 50.66L46.407 50.968C46.395 50.9893 46.3763 51 46.351 51H45.821C45.789 51 45.773 50.9827 45.773 50.948C45.773 50.9133 45.789 50.896 45.821 50.896H45.869V49.83H45.821C45.789 49.83 45.773 49.8127 45.773 49.778C45.773 49.742 45.789 49.724 45.821 49.724H46.031C46.0643 49.724 46.081 49.742 46.081 49.778C46.081 49.8127 46.0643 49.83 46.031 49.83H45.983V50.896ZM47.6037 49.638C47.6197 49.638 47.633 49.6433 47.6437 49.654C47.6543 49.6633 47.6597 49.6733 47.6597 49.684C47.6597 49.6947 47.655 49.708 47.6457 49.724H48.2877L48.2937 49.706C48.3057 49.6687 48.3257 49.65 48.3537 49.65C48.3683 49.65 48.381 49.6553 48.3917 49.666C48.4037 49.6753 48.4097 49.6867 48.4097 49.7C48.4097 49.7133 48.4063 49.7267 48.3997 49.74L48.3257 49.878C48.3137 49.9007 48.301 49.912 48.2877 49.912C48.2597 49.912 48.2457 49.8993 48.2457 49.874C48.2457 49.866 48.247 49.8593 48.2497 49.854L48.2597 49.82H47.9877V50.896H48.0397C48.0717 50.896 48.0877 50.9133 48.0877 50.948C48.0877 50.9827 48.0717 51 48.0397 51H47.8237C47.7917 51 47.7757 50.9827 47.7757 50.948C47.7757 50.9133 47.7917 50.896 47.8237 50.896H47.8737V49.82H47.6037L47.5717 49.872C47.561 49.888 47.549 49.896 47.5357 49.896C47.5223 49.896 47.5117 49.8927 47.5037 49.886C47.497 49.878 47.4937 49.8693 47.4937 49.86C47.4937 49.8493 47.4957 49.8393 47.4997 49.83L47.5477 49.688C47.5583 49.6547 47.577 49.638 47.6037 49.638ZM50.3138 50.896C50.3444 50.896 50.3598 50.9133 50.3598 50.948C50.3598 50.9827 50.3444 51 50.3138 51H50.0938C50.0618 51 50.0458 50.9827 50.0458 50.948C50.0458 50.9133 50.0618 50.896 50.0938 50.896H50.1398L50.0818 50.714H49.5478L49.4918 50.896H49.5398C49.5718 50.896 49.5878 50.9133 49.5878 50.948C49.5878 50.9827 49.5718 51 49.5398 51H49.3378C49.3058 51 49.2898 50.9827 49.2898 50.948C49.2898 50.9133 49.3058 50.896 49.3378 50.896H49.3878L49.7198 49.83H49.6398C49.6091 49.83 49.5938 49.8127 49.5938 49.778C49.5938 49.742 49.6091 49.724 49.6398 49.724H49.8458C49.8751 49.724 49.8931 49.7333 49.8998 49.752L50.2638 50.896H50.3138ZM49.5738 50.618H50.0578L49.8138 49.838L49.5738 50.618ZM51.377 49.638C51.393 49.638 51.4064 49.6433 51.417 49.654C51.4277 49.6633 51.433 49.6733 51.433 49.684C51.433 49.6947 51.4284 49.708 51.419 49.724H52.061L52.067 49.706C52.079 49.6687 52.099 49.65 52.127 49.65C52.1417 49.65 52.1544 49.6553 52.165 49.666C52.177 49.6753 52.183 49.6867 52.183 49.7C52.183 49.7133 52.1797 49.7267 52.173 49.74L52.099 49.878C52.087 49.9007 52.0744 49.912 52.061 49.912C52.033 49.912 52.019 49.8993 52.019 49.874C52.019 49.866 52.0204 49.8593 52.023 49.854L52.033 49.82H51.761V50.896H51.813C51.845 50.896 51.861 50.9133 51.861 50.948C51.861 50.9827 51.845 51 51.813 51H51.597C51.565 51 51.549 50.9827 51.549 50.948C51.549 50.9133 51.565 50.896 51.597 50.896H51.647V49.82H51.377L51.345 49.872C51.3344 49.888 51.3224 49.896 51.309 49.896C51.2957 49.896 51.285 49.8927 51.277 49.886C51.2704 49.878 51.267 49.8693 51.267 49.86C51.267 49.8493 51.269 49.8393 51.273 49.83L51.321 49.688C51.3317 49.6547 51.3504 49.638 51.377 49.638ZM53.3886 50.896V49.83H53.3306C53.2986 49.83 53.2826 49.8127 53.2826 49.778C53.2826 49.742 53.2986 49.724 53.3306 49.724H53.5606C53.5939 49.724 53.6106 49.742 53.6106 49.778C53.6106 49.8127 53.5939 49.83 53.5606 49.83H53.5026V50.896H53.5606C53.5926 50.896 53.6086 50.9133 53.6086 50.948C53.6086 50.9827 53.5926 51 53.5606 51H53.3306C53.2986 51 53.2826 50.9827 53.2826 50.948C53.2826 50.9133 53.2986 50.896 53.3306 50.896H53.3886ZM55.7703 50.362C55.7703 50.5673 55.7203 50.7287 55.6203 50.846C55.5203 50.962 55.3963 51.02 55.2483 51.02C55.1016 51.02 54.9783 50.9607 54.8783 50.842C54.7796 50.7233 54.7303 50.5613 54.7303 50.356C54.7303 50.1507 54.7803 49.9907 54.8803 49.876C54.9803 49.7613 55.1036 49.704 55.2503 49.704C55.3983 49.704 55.5216 49.762 55.6203 49.878C55.7203 49.994 55.7703 50.1553 55.7703 50.362ZM55.6063 50.104C55.577 50.0187 55.531 49.9467 55.4683 49.888C55.4056 49.8293 55.3323 49.8 55.2483 49.8C55.1656 49.8 55.093 49.8273 55.0303 49.882C54.9676 49.9367 54.921 50.0053 54.8903 50.088C54.861 50.1693 54.8463 50.256 54.8463 50.348C54.8463 50.4893 54.8836 50.6207 54.9583 50.742C55.033 50.8633 55.131 50.924 55.2523 50.924C55.3736 50.924 55.4703 50.8673 55.5423 50.754C55.6156 50.6407 55.6523 50.512 55.6523 50.368C55.6523 50.276 55.637 50.188 55.6063 50.104ZM57.7999 49.724C57.8333 49.724 57.8499 49.742 57.8499 49.778C57.8499 49.8127 57.8333 49.83 57.7999 49.83H57.7459V50.954C57.7459 50.99 57.7279 51.008 57.6919 51.008C57.6599 51.008 57.6379 50.9953 57.6259 50.97L57.0899 49.944V50.896H57.1359C57.1679 50.896 57.1839 50.9133 57.1839 50.948C57.1839 50.9827 57.1679 51 57.1359 51H56.9379C56.9059 51 56.8899 50.9827 56.8899 50.948C56.8899 50.9133 56.9059 50.896 56.9379 50.896H56.9859V49.83H56.9379C56.9059 49.83 56.8899 49.8127 56.8899 49.778C56.8899 49.742 56.9059 49.724 56.9379 49.724H57.0719C57.0919 49.724 57.1073 49.7347 57.1179 49.756L57.6419 50.758V49.83H57.5899C57.5579 49.83 57.5419 49.8127 57.5419 49.778C57.5419 49.742 57.5579 49.724 57.5899 49.724H57.7999Z" fill="#041676"/>
<defs>
<linearGradient id="paint0_linear_8_544" x1="30.5" y1="49" x2="30.5" y2="52" gradientUnits="userSpaceOnUse">
<stop stop-color="#F5F5F5"/>
<stop offset="1" stop-color="#041676"/>
</linearGradient>
<linearGradient id="paint1_linear_8_544" x1="31" y1="42" x2="31" y2="45" gradientUnits="userSpaceOnUse">
<stop stop-color="#F5F5F5"/>
<stop offset="1" stop-color="#041676"/>
</linearGradient>
</defs>
</svg>
