<svg width="57" height="38" viewBox="0 0 57 38" fill="none" xmlns="http://www.w3.org/2000/svg">
<path d="M38.4694 14.0273C45.352 14.0273 50.4506 19.2787 50.4506 25.8529V25.9384C50.4506 32.5125 45.3094 37.8495 38.3867 37.8495C31.5053 37.8495 26.406 32.598 26.406 26.0226V25.9384C26.406 19.3636 31.5461 14.0273 38.4694 14.0273ZM3.64362 0.150513C5.6787 0.150513 7.28723 1.8083 7.28723 3.90191V16.3736C9.28035 15.3151 10.2437 14.714 12.7555 14.714C20.6778 14.714 25.2291 20.6679 25.4057 28.1904C25.4214 28.3342 25.4308 28.4811 25.4308 28.63V33.8631C25.4308 35.9599 23.8229 37.6151 21.7878 37.6151C19.7533 37.6151 18.1448 35.9592 18.1448 33.8631V28.637C18.1448 24.6936 16.7292 21.2507 12.6584 21.2507C8.60199 21.2507 7.47013 24.3471 7.2866 28.0928V33.8637C7.2866 35.9592 5.67745 37.6151 3.64299 37.6151C1.60853 37.6151 0 35.9592 0 33.8631V3.90191C0 1.80893 1.60915 0.150513 3.64362 0.150513ZM53.4967 30.1408C55.5105 30.1408 57 31.6751 57 33.6661V33.7484C57 35.74 55.5105 37.2749 53.4967 37.2749C51.4829 37.2749 49.9928 35.74 49.9928 33.749V33.6661C49.9928 31.6751 51.4829 30.1408 53.4967 30.1408ZM38.3867 19.6202C34.78 19.6202 32.624 22.4803 32.624 25.8535V25.9384C32.624 29.311 34.9874 32.2566 38.4694 32.2566C42.0766 32.2566 44.232 29.3965 44.232 26.0233V25.9384C44.232 22.5652 41.8693 19.6202 38.3867 19.6202Z" fill="url(#paint0_linear_24_1066)"/>
<defs>
<linearGradient id="paint0_linear_24_1066" x1="5187" y1="668.345" x2="403.174" y2="2583.76" gradientUnits="userSpaceOnUse">
<stop stop-color="#041676"/>
<stop offset="1" stop-color="#041676"/>
</linearGradient>
</defs>
</svg>
